<svg width="16" height="16" viewBox="0 0 16 16" fill="none" xmlns="http://www.w3.org/2000/svg">
<g clip-path="url(#clip0_973_243)">
<mask id="mask0_973_243" style="mask-type:luminance" maskUnits="userSpaceOnUse" x="0" y="0" width="16" height="16">
<path d="M16 0H0V16H16V0Z" fill="white"/>
</mask>
<g mask="url(#mask0_973_243)">
<path fill-rule="evenodd" clip-rule="evenodd" d="M10.3272 2.33078V1.79872C10.3272 1.22816 10.7897 0.765625 11.3603 0.765625H11.3613C11.9319 0.765625 12.3944 1.22816 12.3944 1.79872V7.74254H14.72C15.1482 7.74254 15.4953 8.08958 15.4953 8.51775V9.03456C15.4953 9.40795 15.2314 9.71959 14.88 9.79324L15.356 13.7915C15.3994 14.1582 15.2841 14.5259 15.0389 14.8021C14.7937 15.0784 14.4423 15.2363 14.073 15.2363H8.64858C8.6186 15.2363 8.58863 15.2352 8.55866 15.2332C8.54548 15.2352 8.53204 15.2363 8.51834 15.2363H2.99133C2.32878 15.2363 1.77347 14.7352 1.70603 14.076L0.771643 4.96599C0.758981 4.95488 0.746836 4.94325 0.734949 4.93136C0.589468 4.78614 0.507812 4.58897 0.507812 4.38328C0.507812 4.17759 0.589468 3.98043 0.734949 3.83521C0.745285 3.82461 0.75588 3.81453 0.766733 3.80497C0.799551 2.12069 2.17504 0.765625 3.86707 0.765625H7.47335C8.66563 0.765625 9.7238 1.38502 10.3272 2.33078ZM14.3614 9.80977H8.3602L7.87879 13.8525C7.85269 14.0727 7.92194 14.2933 8.06897 14.459C8.21626 14.6246 8.42713 14.7195 8.64858 14.7195H9.03515V13.4274C9.03515 13.2848 9.15092 13.169 9.29356 13.169C9.43619 13.169 9.55196 13.2848 9.55196 13.4274V14.7195H11.1024V13.4274C11.1024 13.2848 11.2181 13.169 11.3608 13.169C11.5034 13.169 11.6192 13.2848 11.6192 13.4274V14.7195H13.1696V13.4274C13.1696 13.2848 13.2854 13.169 13.428 13.169C13.5707 13.169 13.6864 13.2848 13.6864 13.4274V14.7195H14.073C14.2945 14.7195 14.5053 14.6246 14.6526 14.459C14.7996 14.2933 14.8689 14.0727 14.8428 13.8525L14.3614 9.80977ZM1.31093 5.1585L2.22 14.0233C2.26057 14.4187 2.59365 14.7195 2.99133 14.7195H7.61496C7.41651 14.4548 7.32632 14.1228 7.3656 13.7915L7.84159 9.79324C7.49016 9.71959 7.22632 9.40795 7.22632 9.03456V8.51775C7.22632 8.08958 7.57336 7.74254 8.00153 7.74254H10.3272V5.1585H1.31093ZM2.31767 8.02446L2.57608 10.8669C2.589 11.0088 2.71484 11.1137 2.85697 11.1008C2.99883 11.0878 3.10374 10.962 3.09082 10.8199L2.83242 7.97743C2.8195 7.83556 2.69365 7.73065 2.55153 7.74357C2.40967 7.75649 2.30475 7.88234 2.31767 8.02446ZM14.72 8.25935H8.00153C7.8589 8.25935 7.74313 8.37511 7.74313 8.51775V9.03456C7.74313 9.1772 7.8589 9.29296 8.00153 9.29296H14.72C14.8627 9.29296 14.9784 9.1772 14.9784 9.03456V8.51775C14.9784 8.37511 14.8627 8.25935 14.72 8.25935ZM11.8776 7.74254V6.96733H10.844V7.74254H11.8776ZM10.844 1.79872V6.45052H11.8776V1.79872C11.8776 1.5137 11.6463 1.28243 11.3613 1.28243H11.3603C11.0752 1.28243 10.844 1.5137 10.844 1.79872ZM10.3272 4.12488H1.28303C1.21455 4.12488 1.14865 4.15201 1.10033 4.20059C1.05175 4.24891 1.02462 4.31481 1.02462 4.38328C1.02462 4.45176 1.05175 4.51765 1.10033 4.56598C1.14865 4.61456 1.21455 4.64169 1.28303 4.64169H10.3272V4.12488ZM10.2887 3.60807C10.0331 2.2716 8.86021 1.28243 7.47335 1.28243H3.86707C2.52724 1.28243 1.4254 2.30235 1.29569 3.60807H10.2887Z" fill="#4559BD"/>
</g>
</g>
<defs>
<clipPath id="clip0_973_243">
<rect width="16" height="16" fill="white"/>
</clipPath>
</defs>
</svg>
