<svg width="16" height="16" viewBox="0 0 16 16" fill="none" xmlns="http://www.w3.org/2000/svg">
<path d="M8 3.52971C8.85046 3.52971 9.53962 4.21888 9.53962 5.06934C9.53962 5.91979 8.85046 6.60896 8 6.60896C7.14954 6.60896 6.46038 5.91979 6.46038 5.06934C6.46038 4.21888 7.14954 3.52971 8 3.52971ZM8 10.1281C10.1775 10.1281 12.4722 11.1985 12.4722 11.6677V12.4742H3.52776V11.6677C3.52776 11.1985 5.82253 10.1281 8 10.1281ZM8 2.13672C6.37973 2.13672 5.06738 3.44906 5.06738 5.06934C5.06738 6.68961 6.37973 8.00195 8 8.00195C9.62027 8.00195 10.9326 6.68961 10.9326 5.06934C10.9326 3.44906 9.62027 2.13672 8 2.13672ZM8 8.73511C6.04248 8.73511 2.13477 9.71753 2.13477 11.6677V13.134C2.13477 13.5373 2.46469 13.8672 2.86792 13.8672H13.1321C13.5353 13.8672 13.8652 13.5373 13.8652 13.134V11.6677C13.8652 9.71753 9.95752 8.73511 8 8.73511Z" fill="#4559BD"/>
</svg>
