<svg width="16" height="16" viewBox="0 0 16 16" fill="none" xmlns="http://www.w3.org/2000/svg">
<path d="M12.8003 14.5254H3.21457C2.30023 14.5254 1.55469 13.7815 1.55469 12.8656V11.1228H4.38211V1.47461H14.4414V12.8656C14.4414 13.7737 13.7068 14.5145 12.8003 14.5254ZM2.02514 11.5933V12.8671C2.02514 13.5236 2.55968 14.0581 3.21613 14.0581H11.6468C11.3358 13.7565 11.142 13.3345 11.142 12.8671V11.5933H2.02514ZM4.851 11.1244H11.6109V12.8671C11.6109 13.5204 12.1407 14.0519 12.7925 14.0581C13.4442 14.0534 13.9741 13.5204 13.9741 12.8671V1.9435H4.851V11.1244ZM11.4968 5.08664C11.3905 4.11604 10.6074 3.33924 9.63683 3.23764C9.03195 3.17513 8.43177 3.37362 7.98945 3.78312C7.54713 4.19262 7.30174 4.77405 7.31737 5.37736C7.31893 5.44456 7.37364 5.49927 7.44241 5.49927H8.26297C8.29736 5.49927 8.33018 5.4852 8.35362 5.46019C8.37707 5.43519 8.38957 5.40236 8.38801 5.36798V5.34453C8.38645 5.33672 8.38488 5.3289 8.38488 5.32109C8.38488 5.03663 8.49742 4.77248 8.70373 4.57711C8.90848 4.38174 9.17575 4.28015 9.46333 4.29421C9.98849 4.31766 10.4183 4.74904 10.4418 5.27264C10.4543 5.5571 10.3542 5.82749 10.1589 6.03224C9.96349 6.23699 9.69778 6.35109 9.41488 6.35109H9.02258C8.95381 6.35109 8.89754 6.40735 8.89754 6.47613V8.21884C8.89754 8.28761 8.95381 8.34388 9.02258 8.34388H9.80875C9.87752 8.34388 9.93379 8.28761 9.93379 8.21884V7.35452C10.9482 7.09819 11.6156 6.14165 11.4999 5.08508L11.4968 5.08664ZM9.41332 8.87685C9.10229 8.87685 8.85065 9.13006 8.85065 9.43952C8.85065 9.74899 9.10385 10.0022 9.41332 10.0022C9.72279 10.0022 9.97599 9.74899 9.97599 9.43952C9.97599 9.13006 9.72279 8.87685 9.41332 8.87685Z" fill="black"/>
</svg>
