<svg width="16" height="16" viewBox="0 0 16 16" fill="none" xmlns="http://www.w3.org/2000/svg">
<g clip-path="url(#clip0_4097_731)">
<path d="M7.34658 11.1611L5.43348 9.24803C5.37501 9.17975 5.34445 9.09192 5.34792 9.00209C5.35139 8.91226 5.38863 8.82705 5.4522 8.76348C5.51576 8.69992 5.60097 8.66268 5.6908 8.65921C5.78063 8.65574 5.86846 8.6863 5.93674 8.74477L7.34658 10.1403L10.4304 7.05653C10.4987 6.99805 10.5865 6.9675 10.6763 6.97097C10.7662 6.97444 10.8514 7.01168 10.9149 7.07524C10.9785 7.13881 11.0157 7.22402 11.0192 7.31385C11.0227 7.40368 10.9921 7.49151 10.9336 7.55979L7.34658 11.1611Z" fill="black"/>
<path d="M13.086 4.07422H11.926V4.78806H12.9968V12.6403H3.003V4.78806H4.07376V4.07422H2.91377C2.83033 4.07561 2.74799 4.09343 2.67144 4.12665C2.59489 4.15988 2.52564 4.20785 2.46764 4.26785C2.40963 4.32784 2.36402 4.39867 2.33339 4.47629C2.30277 4.55392 2.28774 4.63681 2.28915 4.72025V12.7082C2.28774 12.7916 2.30277 12.8745 2.33339 12.9521C2.36402 13.0297 2.40963 13.1006 2.46764 13.1606C2.52564 13.2206 2.59489 13.2685 2.67144 13.3018C2.74799 13.335 2.83033 13.3528 2.91377 13.3542H13.086C13.1695 13.3528 13.2518 13.335 13.3284 13.3018C13.4049 13.2685 13.4742 13.2206 13.5322 13.1606C13.5902 13.1006 13.6358 13.0297 13.6664 12.9521C13.697 12.8745 13.7121 12.7916 13.7107 12.7082V4.72025C13.7121 4.63681 13.697 4.55392 13.6664 4.47629C13.6358 4.39867 13.5902 4.32784 13.5322 4.26785C13.4742 4.20785 13.4049 4.15988 13.3284 4.12665C13.2518 4.09343 13.1695 4.07561 13.086 4.07422Z" fill="black"/>
<path d="M5.14598 5.50186C5.24065 5.50186 5.33143 5.46426 5.39837 5.39732C5.4653 5.33038 5.50291 5.2396 5.50291 5.14494V3.00341C5.50291 2.90874 5.4653 2.81796 5.39837 2.75102C5.33143 2.68409 5.24065 2.64648 5.14598 2.64648C5.05132 2.64648 4.96054 2.68409 4.8936 2.75102C4.82667 2.81796 4.78906 2.90874 4.78906 3.00341V5.14494C4.78906 5.2396 4.82667 5.33038 4.8936 5.39732C4.96054 5.46426 5.05132 5.50186 5.14598 5.50186Z" fill="black"/>
<path d="M10.853 5.50186C10.9477 5.50186 11.0385 5.46426 11.1054 5.39732C11.1723 5.33038 11.2099 5.2396 11.2099 5.14494V3.00341C11.2099 2.90874 11.1723 2.81796 11.1054 2.75102C11.0385 2.68409 10.9477 2.64648 10.853 2.64648C10.7584 2.64648 10.6676 2.68409 10.6006 2.75102C10.5337 2.81796 10.4961 2.90874 10.4961 3.00341V5.14494C10.4961 5.2396 10.5337 5.33038 10.6006 5.39732C10.6676 5.46426 10.7584 5.50186 10.853 5.50186Z" fill="black"/>
<path d="M6.21094 4.07422H9.78016V4.78806H6.21094V4.07422Z" fill="black"/>
</g>
<defs>
<clipPath id="clip0_4097_731">
<rect width="16" height="16" fill="white"/>
</clipPath>
</defs>
</svg>
