<svg width="16" height="16" viewBox="0 0 16 16" fill="none" xmlns="http://www.w3.org/2000/svg">
<path d="M5.20251 4.7721H6.19561C6.30528 4.7721 6.39422 4.6606 6.39422 4.52298V2.72954C6.39422 2.592 6.30528 2.48047 6.19561 2.48047H5.20251C5.09284 2.48047 5.00391 2.592 5.00391 2.72954V4.52298C5.00387 4.6606 5.09281 4.7721 5.20251 4.7721ZM5.40112 2.97866H5.99697V4.2739H5.40112V2.97866Z" fill="black"/>
<path d="M7.5072 4.7721H8.5003C8.60997 4.7721 8.69894 4.6606 8.69894 4.52298V2.72954C8.69894 2.592 8.60997 2.48047 8.5003 2.48047H7.5072C7.39749 2.48047 7.30859 2.592 7.30859 2.72954V4.52298C7.30859 4.6606 7.39753 4.7721 7.5072 4.7721ZM7.70584 2.97866H8.30169V4.2739H7.70584V2.97866Z" fill="black"/>
<path d="M9.80802 4.7721H10.8011C10.9108 4.7721 10.9997 4.6606 10.9997 4.52298V2.72954C10.9997 2.592 10.9108 2.48047 10.8011 2.48047H9.80802C9.69834 2.48047 9.60938 2.592 9.60938 2.72954V4.52298C9.60938 4.6606 9.69834 4.7721 9.80802 4.7721ZM10.0067 2.97866H10.6025V4.2739H10.0067V2.97866Z" fill="black"/>
<path d="M6.11328 5.71973V7.51317C6.11328 7.65079 6.20222 7.76229 6.31189 7.76229H7.30499C7.41466 7.76229 7.50359 7.65079 7.50359 7.51317V5.71973C7.50359 5.58219 7.41466 5.4707 7.30499 5.4707H6.31189C6.20222 5.4707 6.11328 5.58219 6.11328 5.71973ZM6.51053 5.96885H7.10638V7.26414H6.51053V5.96885Z" fill="black"/>
<path d="M9.67218 5.4707H8.67911C8.56937 5.4707 8.48047 5.58219 8.48047 5.71973V7.51317C8.48047 7.65079 8.56937 7.76229 8.67911 7.76229H9.67218C9.78185 7.76229 9.87082 7.65079 9.87082 7.51317V5.71973C9.87082 5.58219 9.78185 5.4707 9.67218 5.4707ZM9.47353 7.26414H8.87768V5.96885H9.47353V7.26414Z" fill="black"/>
<path d="M15.5475 5.89384H12.2117V1.41544C12.2117 1.30573 12.1228 1.2168 12.0131 1.2168H4.06263C3.95296 1.2168 3.86403 1.30573 3.86403 1.41544V5.89384H0.452513C0.342808 5.89384 0.253906 5.98281 0.253906 6.09248V6.84721C0.253906 6.95694 0.342842 7.04585 0.452513 7.04585H0.75953V13.2427C0.75953 13.3524 0.848466 13.4414 0.958137 13.4414H3.98691C3.99985 13.4414 4.01248 13.44 4.02477 13.4376C4.03703 13.44 4.04966 13.4414 4.06263 13.4414H12.0131H15.0418C15.1515 13.4414 15.2404 13.3524 15.2404 13.2427V7.04585H15.5475C15.6572 7.04585 15.7461 6.95694 15.7461 6.84721V6.09248C15.7461 5.98281 15.6572 5.89384 15.5475 5.89384ZM3.7883 7.6814H2.55788V8.07868H3.7883V13.0441H1.15678V8.07868H1.9223V7.6814H1.15678V7.05H3.7883V7.6814ZM3.78929 6.64863H0.651153V6.29112H3.78933L3.78929 6.64863ZM7.80003 12.9684H6.15285V10.3031H7.80003V12.9684ZM9.84715 12.9725H8.19997V10.3031H9.84715V12.9725ZM8.03909 9.90594C8.02598 9.90321 8.0125 9.90178 7.99864 9.90178H5.95425C5.94039 9.90178 5.92684 9.90321 5.9138 9.90594H5.06047V9.31008H10.9396V9.90594H10.0458H8.03909ZM11.8144 6.07249C11.8137 6.07903 11.8135 6.08574 11.8135 6.09248V6.84721C11.8135 6.85398 11.8138 6.86066 11.8144 6.86723V13.0441H10.2444V10.3031H11.1381C11.2479 10.3031 11.3368 10.2142 11.3368 10.1046V9.11145C11.3368 9.00178 11.2479 8.91288 11.1381 8.91288H4.86183C4.75212 8.91288 4.66322 9.00178 4.66322 9.11145V10.1046C4.66322 10.2142 4.75216 10.3031 4.86183 10.3031H5.75561V13.0441H4.26124V1.61404H11.8144V6.07249ZM14.8432 7.6814H14.038V8.07868H14.8432V13.0441H12.2117V8.07868H13.4024V7.6814H12.2117V7.05H14.8432V7.6814ZM15.3489 6.64863H12.2117V6.29112H15.3489V6.64863Z" fill="black"/>
</svg>
