<svg width="16" height="16" viewBox="0 0 16 16" fill="none" xmlns="http://www.w3.org/2000/svg">
<g clip-path="url(#clip0_4093_592)">
<path d="M14.9389 5.45285C14.6271 4.99586 14.1104 4.72317 13.5569 4.72317H12.1161C12.1893 4.46092 12.2284 4.1847 12.2284 3.89951C12.2284 2.20598 10.851 0.828125 9.15783 0.828125C7.4643 0.828125 6.08644 2.20598 6.08644 3.89951C6.08644 4.1847 6.12574 4.46092 6.19889 4.72317H4.68966C4.59855 4.30918 4.4999 3.86454 4.38955 3.37082C4.30886 3.00575 3.97924 2.7406 3.60598 2.7406L1.57866 2.7382C1.13466 2.7382 0.773438 3.09974 0.773438 3.54422C0.773438 3.98821 1.13466 4.34944 1.57866 4.34944H2.96133L4.40334 10.9938V12.6015C4.40334 13.3506 4.92786 13.9972 5.64566 14.1625C5.85755 14.7501 6.4204 15.1715 7.08014 15.1715C7.72415 15.1715 8.27577 14.7698 8.49873 14.2039H10.7434C10.9664 14.7698 11.518 15.1715 12.162 15.1715C13.0025 15.1715 13.6865 14.4877 13.6865 13.647C13.6865 12.8065 13.0027 12.1225 12.162 12.1225C11.7302 12.1225 11.3401 12.3033 11.0626 12.5927H8.17953C7.90188 12.3033 7.51178 12.1225 7.08014 12.1225C6.66534 12.1225 6.28887 12.2892 6.01378 12.559V11.7215L11.2405 11.7199H11.2586C11.9974 11.7196 12.4855 11.7193 12.8854 11.5244C13.2927 11.326 13.5665 10.9548 13.8619 10.2003L15.1148 7.00586C15.3166 6.49049 15.2509 5.90983 14.9389 5.45285ZM9.15815 1.28126C10.6013 1.28126 11.7754 2.45573 11.7754 3.89935C11.7754 5.34249 10.6013 6.51663 9.15815 6.51663C7.71453 6.51663 6.54006 5.34249 6.54006 3.89935C6.54006 2.45573 7.71453 1.28126 9.15815 1.28126ZM11.0275 6.33345H11.4805V7.29138H10.2341V6.7752C10.5214 6.66725 10.7883 6.5176 11.0275 6.33345ZM8.5345 7.74451H9.78083V8.70163H8.5345V7.74451ZM8.08137 8.70163H6.83584V7.74451H8.08137V8.70163ZM10.2341 7.74451H11.4805V8.70163H10.2341V7.74451ZM9.78083 7.29138H8.5345V6.90625C8.73597 6.94795 8.94449 6.96993 9.15815 6.96993C9.37148 6.96993 9.57969 6.94795 9.78083 6.90641V7.29138ZM8.08137 7.29138H6.83584V6.33345H7.28834C7.5275 6.51743 7.79425 6.66709 8.08137 6.77488V7.29138ZM6.38255 7.29138H5.24545L5.03918 6.33345H6.38255V7.29138ZM6.38255 7.74451V8.70163H5.5491L5.34298 7.74451H6.38255ZM6.38255 9.15493V10.1112C6.19022 10.1112 6.0117 10.1112 5.85274 10.1112L5.64678 9.15493H6.38255ZM6.83584 9.15493H8.08137V10.1117C7.65261 10.1116 7.22658 10.1114 6.83584 10.1112V9.15493ZM8.5345 9.15493H9.78083V10.1125C9.39795 10.1124 8.97096 10.1122 8.5345 10.1119V9.15493ZM10.2341 9.15493H11.4805V10.1137C11.408 10.1141 10.7352 10.1132 10.2341 10.1129V9.15493ZM11.9338 9.15493H12.5442L12.3639 9.61464C12.2459 9.91572 12.1604 10.0359 11.9338 10.0833V9.15493ZM12.7221 8.70163H11.9338V7.74451H13.0975L12.7221 8.70163ZM13.2752 7.29138H11.9338V6.33345H13.557C13.5877 6.33345 13.6039 6.34773 13.612 6.35976C13.6204 6.37179 13.6279 6.39232 13.6169 6.42039L13.2752 7.29138ZM12.162 12.5757C12.7526 12.5757 13.2332 13.0562 13.2332 13.6468C13.2332 14.2374 12.7526 14.718 12.162 14.718C11.5714 14.718 11.0908 14.2374 11.0908 13.6468C11.0908 13.0562 11.5712 12.5757 12.162 12.5757ZM10.7612 13.0458C10.6817 13.2304 10.6375 13.4335 10.6375 13.6468C10.6375 13.6816 10.6391 13.7161 10.6414 13.7505H8.60059C8.60284 13.7161 8.60444 13.6816 8.60444 13.6468C8.60444 13.4335 8.56017 13.2303 8.48077 13.0458H10.7612ZM7.07998 12.5757C7.67058 12.5757 8.15114 13.0562 8.15114 13.6468C8.15114 14.2374 7.67058 14.718 7.07998 14.718C6.48937 14.718 6.00881 14.2374 6.00881 13.6468C6.00881 13.0562 6.48937 12.5757 7.07998 12.5757ZM14.6928 6.84049L13.4399 10.0349C12.9578 11.2658 12.665 11.266 11.2581 11.2666L5.78697 11.2682C5.66186 11.2682 5.56032 11.3698 5.56032 11.4949V12.6015C5.56032 12.741 5.62529 12.8655 5.72634 12.9472C5.61743 13.157 5.55551 13.3948 5.55551 13.647C5.55551 13.6508 5.55583 13.6545 5.55583 13.6584C5.14199 13.4816 4.85648 13.0695 4.85648 12.6015V10.9694C4.85648 10.9532 4.85471 10.9372 4.85135 10.9213L3.36554 4.07467C3.34292 3.97041 3.25069 3.89614 3.14402 3.89614H1.57866C1.38457 3.89614 1.22673 3.7383 1.22673 3.54422C1.22673 3.34965 1.38457 3.19149 1.57834 3.19149L3.60614 3.1939C3.76863 3.1939 3.91219 3.30939 3.94748 3.46915C4.07388 4.03425 4.18471 4.53454 4.28641 4.99826C4.30919 5.10221 4.40126 5.17631 4.50776 5.17631H6.36522C6.48248 5.43167 6.6339 5.66826 6.81339 5.88032H4.75847C4.68998 5.88032 4.62518 5.91127 4.58219 5.96453C4.5392 6.01778 4.52252 6.08772 4.53696 6.15461L5.4482 10.3855C5.47066 10.49 5.56289 10.5644 5.66972 10.5644C7.11655 10.5644 11.3302 10.5671 11.3735 10.5671C12.1301 10.5671 12.4928 10.5277 12.786 9.78018L14.0389 6.58561C14.1017 6.42456 14.082 6.24459 13.9861 6.10424C13.8903 5.96405 13.7299 5.88048 13.5569 5.88048H11.5021C11.6816 5.66843 11.8329 5.43183 11.9501 5.17647H13.5569C13.9665 5.17647 14.3337 5.3704 14.5645 5.70837C14.7953 6.04649 14.8422 6.45921 14.6928 6.84049ZM7.07998 14.3775C7.48275 14.3775 7.81045 14.0498 7.81045 13.647C7.81045 13.2442 7.48275 12.9165 7.07998 12.9165C6.67721 12.9165 6.3495 13.2442 6.3495 13.647C6.3495 14.0498 6.67737 14.3775 7.07998 14.3775ZM7.07998 13.3697C7.23284 13.3697 7.35715 13.494 7.35715 13.6468C7.35715 13.7997 7.23284 13.924 7.07998 13.924C6.92711 13.924 6.8028 13.7997 6.8028 13.6468C6.8028 13.4941 6.92727 13.3697 7.07998 13.3697ZM12.162 14.3775C12.5648 14.3775 12.8925 14.0498 12.8925 13.647C12.8925 13.2442 12.5648 12.9165 12.162 12.9165C11.7592 12.9165 11.4315 13.2442 11.4315 13.647C11.4315 14.0498 11.7592 14.3775 12.162 14.3775ZM12.162 13.3697C12.3149 13.3697 12.4392 13.494 12.4392 13.6468C12.4392 13.7997 12.3149 13.924 12.162 13.924C12.0091 13.924 11.8848 13.7997 11.8848 13.6468C11.8847 13.4941 12.0091 13.3697 12.162 13.3697ZM8.34491 5.1006C8.47115 5.22379 8.63572 5.28522 8.80045 5.28522C8.96871 5.28522 9.13697 5.22106 9.26433 5.09306L10.7168 3.62683C10.84 3.50299 10.9075 3.33858 10.907 3.1639C10.9065 2.98923 10.8382 2.82513 10.7141 2.70162C10.4577 2.44771 10.0429 2.44947 9.78933 2.70563L8.79275 3.712L8.51814 3.44429C8.2599 3.19342 7.84525 3.19887 7.59342 3.45696C7.47152 3.58239 7.40607 3.74777 7.4088 3.92277C7.41153 4.09728 7.4821 4.26009 7.60674 4.38072L8.34491 5.1006ZM7.91808 3.77327C7.95738 3.73301 8.00983 3.71264 8.06228 3.71264C8.11281 3.71264 8.16333 3.73141 8.20215 3.76926L8.63764 4.19353C8.72683 4.2803 8.86926 4.27902 8.95684 4.19064L10.1116 3.02467C10.1894 2.94624 10.3166 2.94576 10.395 3.02339C10.433 3.06125 10.454 3.11161 10.454 3.16519C10.4542 3.21876 10.4335 3.26929 10.3953 3.30746L8.94289 4.7737C8.86573 4.85134 8.7395 4.8523 8.66138 4.77611L7.92225 4.05542C7.88407 4.01853 7.86274 3.96896 7.86178 3.91555C7.86097 3.86197 7.88103 3.81129 7.91808 3.77327Z" fill="black"/>
</g>
<defs>
<clipPath id="clip0_4093_592">
<rect width="16" height="16" fill="white"/>
</clipPath>
</defs>
</svg>
