<svg width="16" height="16" viewBox="0 0 16 16" fill="none" xmlns="http://www.w3.org/2000/svg">
<path d="M12.9877 5.13465H10.4054V4.4516C10.4054 3.9602 10.0049 3.55971 9.51351 3.55971H9.14496V1.10517C9.14496 1.04375 9.11547 0.982321 9.06879 0.945466L8.42506 0.429496C8.34889 0.36807 8.24324 0.36807 8.16707 0.429496L7.5995 0.884041L7.03194 0.429496C6.95577 0.36807 6.85012 0.36807 6.77395 0.429496L6.20638 0.884041L5.63882 0.429496C5.56265 0.36807 5.457 0.36807 5.38083 0.429496L4.81327 0.884041L4.24324 0.427039C4.16953 0.36807 4.06142 0.36807 3.98526 0.427039L3.33907 0.943009C3.28993 0.982321 3.26044 1.04129 3.26044 1.10271V3.5548H2.89189C2.40049 3.5548 2 3.95529 2 4.44669V14.7268C2 15.2182 2.40049 15.6187 2.89189 15.6187H9.51105C10.0024 15.6187 10.4029 15.2182 10.4029 14.7268V14.2329H12.9852C13.5454 14.2329 14 13.7784 14 13.2182V6.14939C14.0024 5.5892 13.5479 5.13465 12.9877 5.13465ZM3.67322 1.20345L4.11302 0.8521L4.68304 1.30664C4.75675 1.36561 4.86486 1.36561 4.94103 1.30664L5.5086 0.8521L6.07616 1.30664C6.15233 1.36807 6.25798 1.36807 6.33415 1.30664L6.90172 0.8521L7.46928 1.30664C7.54545 1.36807 7.6511 1.36807 7.72727 1.30664L8.29483 0.8521L8.73464 1.20345V4.65799H3.67322V1.20345ZM9.99508 14.7292C9.99508 14.9946 9.77886 15.2108 9.51351 15.2108H2.89435C2.62899 15.2108 2.41278 14.9946 2.41278 14.7292V4.44915C2.41278 4.18379 2.62899 3.96758 2.89435 3.96758H3.2629V4.66536H3.10074C2.99263 4.66536 2.90418 4.75382 2.90418 4.86192C2.90418 4.97003 2.99263 5.05848 3.10074 5.05848H9.30712C9.41523 5.05848 9.50368 4.97003 9.50368 4.86192C9.50368 4.75382 9.41523 4.66536 9.30712 4.66536H9.14496V3.96758H9.51351C9.77886 3.96758 9.99508 4.18379 9.99508 4.44915V14.7292ZM13.5921 13.2206C13.5921 13.5523 13.3219 13.8226 12.9902 13.8226H10.4054V5.54497H12.9877C13.3194 5.54497 13.5897 5.81524 13.5897 6.14694V13.2206H13.5921Z" fill="black"/>
<path d="M12.6673 8.05172C12.7803 8.05172 12.8737 7.95835 12.8737 7.84533V6.18686C12.8737 6.07383 12.7803 5.98047 12.6673 5.98047C12.5543 5.98047 12.4609 6.07383 12.4609 6.18686V7.84533C12.4634 7.95835 12.5543 8.05172 12.6673 8.05172Z" fill="black"/>
<path d="M11.6751 8.88956C11.7882 8.88956 11.8815 8.79619 11.8815 8.68317V6.18686C11.8815 6.07383 11.7882 5.98047 11.6751 5.98047C11.5621 5.98047 11.4688 6.07383 11.4688 6.18686V8.68563C11.4688 8.79865 11.5621 8.88956 11.6751 8.88956Z" fill="black"/>
<path d="M8.65213 5.54883H3.75778C3.50471 5.54883 3.30078 5.75276 3.30078 6.00583V8.18028C3.30078 8.43335 3.50471 8.63728 3.75778 8.63728H8.65459C8.90766 8.63728 9.11159 8.43335 9.11159 8.18028V6.00583C9.10913 5.75276 8.9052 5.54883 8.65213 5.54883ZM8.69881 8.18028C8.69881 8.20485 8.67916 8.2245 8.65459 8.2245H3.75778C3.73321 8.2245 3.71356 8.20485 3.71356 8.18028V6.00583C3.71356 5.98126 3.73321 5.9616 3.75778 5.9616H8.65459C8.67916 5.9616 8.69881 5.98126 8.69881 6.00583V8.18028Z" fill="black"/>
<path d="M4.54126 13.0332H3.83364C3.61006 13.0332 3.42578 13.215 3.42578 13.4411V14.1511C3.42578 14.3747 3.6076 14.559 3.83364 14.559H4.54126C4.76485 14.559 4.94912 14.3772 4.94912 14.1511V13.4411C4.94666 13.2175 4.76485 13.0332 4.54126 13.0332ZM3.8361 14.1511L3.83119 13.446H4.53389L4.54126 14.1462L3.8361 14.1511Z" fill="black"/>
<path d="M6.55688 13.0332H5.84927C5.62568 13.0332 5.44141 13.215 5.44141 13.4411V14.1511C5.44141 14.3747 5.62322 14.559 5.84927 14.559H6.55688C6.78047 14.559 6.96475 14.3772 6.96475 14.1511V13.4411C6.96475 13.2175 6.78047 13.0332 6.55688 13.0332ZM5.85418 14.1511L5.84927 13.446H6.55197L6.55688 14.1462L5.85418 14.1511Z" fill="black"/>
<path d="M8.57642 13.0332H7.8688C7.64521 13.0332 7.46094 13.215 7.46094 13.4411V14.1511C7.46094 14.3747 7.64276 14.559 7.8688 14.559H8.57642C8.8 14.559 8.98428 14.3772 8.98428 14.1511V13.4411C8.98182 13.2175 8.8 13.0332 8.57642 13.0332ZM7.87126 14.1511L7.86634 13.446H8.56905L8.57642 14.1462L7.87126 14.1511Z" fill="black"/>
<path d="M4.54126 11.1484H3.83364C3.61006 11.1484 3.42578 11.3303 3.42578 11.5563V12.2664C3.42578 12.49 3.6076 12.6742 3.83364 12.6742H4.54126C4.76485 12.6742 4.94912 12.4924 4.94912 12.2664V11.5563C4.94666 11.3303 4.76485 11.1484 4.54126 11.1484ZM3.8361 12.2639L3.83119 11.5588H4.53389L4.5388 12.259L3.8361 12.2639Z" fill="black"/>
<path d="M6.55688 11.1484H5.84927C5.62568 11.1484 5.44141 11.3303 5.44141 11.5563V12.2664C5.44141 12.49 5.62322 12.6742 5.84927 12.6742H6.55688C6.78047 12.6742 6.96475 12.4924 6.96475 12.2664V11.5563C6.96475 11.3303 6.78047 11.1484 6.55688 11.1484ZM5.85418 12.2639L5.84927 11.5588H6.55197L6.55688 12.259L5.85418 12.2639Z" fill="black"/>
<path d="M8.57642 11.1484H7.8688C7.64521 11.1484 7.46094 11.3303 7.46094 11.5563V12.2664C7.46094 12.49 7.64276 12.6742 7.8688 12.6742H8.57642C8.8 12.6742 8.98428 12.4924 8.98428 12.2664V11.5563C8.98182 11.3303 8.8 11.1484 8.57642 11.1484ZM7.87126 12.2639L7.86634 11.5588H8.56905L8.57396 12.259L7.87126 12.2639Z" fill="black"/>
<path d="M4.54126 9.25977H3.83364C3.61006 9.25977 3.42578 9.44158 3.42578 9.66763V10.3777C3.42578 10.6013 3.6076 10.7856 3.83364 10.7856H4.54126C4.76485 10.7856 4.94912 10.6037 4.94912 10.3777V9.66763C4.94666 9.44158 4.76485 9.25977 4.54126 9.25977ZM3.8361 10.3777L3.83119 9.67254H4.53389L4.5388 10.3728L3.8361 10.3777Z" fill="black"/>
<path d="M6.55688 9.25977H5.84927C5.62568 9.25977 5.44141 9.44158 5.44141 9.66763V10.3777C5.44141 10.6013 5.62322 10.7856 5.84927 10.7856H6.55688C6.78047 10.7856 6.96475 10.6037 6.96475 10.3777V9.66763C6.96475 9.44158 6.78047 9.25977 6.55688 9.25977ZM5.85418 10.3777L5.84927 9.67254H6.55197L6.55688 10.3728L5.85418 10.3777Z" fill="black"/>
<path d="M8.57642 9.25977H7.8688C7.64521 9.25977 7.46094 9.44158 7.46094 9.66763V10.3777C7.46094 10.6013 7.64276 10.7856 7.8688 10.7856H8.57642C8.8 10.7856 8.98428 10.6037 8.98428 10.3777V9.66763C8.98182 9.44158 8.8 9.25977 8.57642 9.25977ZM7.87126 10.3777L7.86634 9.67254H8.56905L8.57396 10.3728L7.87126 10.3777Z" fill="black"/>
<path d="M5.93093 3.2896H7.97762C8.08572 3.2896 8.17418 3.20115 8.17418 3.09304C8.17418 2.98494 8.08572 2.89648 7.97762 2.89648H5.93093C5.82283 2.89648 5.73438 2.98494 5.73438 3.09304C5.73438 3.20115 5.82283 3.2896 5.93093 3.2896Z" fill="black"/>
<path d="M5.93093 4.1939H7.97762C8.08572 4.1939 8.17418 4.10545 8.17418 3.99734C8.17418 3.88923 8.08572 3.80078 7.97762 3.80078H5.93093C5.82283 3.80078 5.73438 3.88923 5.73438 3.99734C5.73438 4.10545 5.82283 4.1939 5.93093 4.1939Z" fill="black"/>
<path d="M5.93093 2.38335H6.85968C6.96779 2.38335 7.05624 2.2949 7.05624 2.18679C7.05624 2.07869 6.96779 1.99023 6.85968 1.99023H5.93093C5.82283 1.99023 5.73438 2.07869 5.73438 2.18679C5.73438 2.29736 5.82283 2.38335 5.93093 2.38335Z" fill="black"/>
<path d="M4.68091 3.74685C4.54823 3.74685 4.44012 3.63874 4.44012 3.50606C4.44012 3.39304 4.34675 3.29967 4.23373 3.29967C4.12071 3.29967 4.02734 3.39304 4.02734 3.50606C4.02734 3.79353 4.21653 4.03677 4.47452 4.12277V4.20139C4.47452 4.31441 4.56788 4.40778 4.68091 4.40778C4.79393 4.40778 4.88729 4.31441 4.88729 4.20139V4.12277C5.14528 4.03677 5.33447 3.79353 5.33447 3.50606C5.33447 3.14488 5.04208 2.8525 4.68091 2.8525C4.54823 2.8525 4.44012 2.74439 4.44012 2.61171C4.44012 2.47903 4.54823 2.37093 4.68091 2.37093C4.81358 2.37093 4.92169 2.47903 4.92169 2.61171C4.92169 2.72473 5.01506 2.8181 5.12808 2.8181C5.2411 2.8181 5.33447 2.72473 5.33447 2.61171C5.33447 2.32424 5.14528 2.081 4.88729 1.995V1.91147C4.88729 1.79844 4.79393 1.70508 4.68091 1.70508C4.56788 1.70508 4.47452 1.79844 4.47452 1.91147V1.99255C4.21653 2.07854 4.02734 2.32179 4.02734 2.60925C4.02734 2.97043 4.31973 3.26282 4.68091 3.26282C4.81358 3.26282 4.92169 3.37092 4.92169 3.5036C4.92169 3.63628 4.81358 3.74685 4.68091 3.74685Z" fill="black"/>
<path d="M12.5586 10.6953H11.625C11.3719 10.6953 11.168 10.8992 11.168 11.1523V12.7273C11.168 12.9803 11.3744 13.1843 11.625 13.1843H12.5586C12.8117 13.1843 13.0156 12.9803 13.0156 12.7273V11.1523C13.0156 10.8992 12.8092 10.6953 12.5586 10.6953ZM12.6029 12.7273C12.6029 12.7518 12.5807 12.7739 12.5562 12.7739H11.6225C11.5979 12.7739 11.5758 12.7543 11.5758 12.7273V11.1523C11.5758 11.1253 11.5955 11.1056 11.6225 11.1056H12.5562C12.5807 11.1056 12.6029 11.1253 12.6029 11.1523V12.7273Z" fill="black"/>
</svg>
