<svg width="16" height="16" viewBox="0 0 16 16" fill="none" xmlns="http://www.w3.org/2000/svg">
<path d="M9.50489 12.0839L8.88378 11.6699V7.99947H11.8284C11.9845 7.99927 12.1342 7.93715 12.2446 7.82675C12.355 7.71636 12.4171 7.56668 12.4173 7.41056V6.82164C12.4171 6.66551 12.355 6.51584 12.2446 6.40544C12.1342 6.29504 11.9845 6.23293 11.8284 6.23272H10.9301C10.8612 5.55729 10.5614 4.9263 10.0814 4.44622C9.60128 3.96614 8.97029 3.66638 8.29486 3.59751V3.28814H8.58932C8.66741 3.28814 8.74231 3.25711 8.79753 3.20189C8.85275 3.14667 8.88378 3.07177 8.88378 2.99368C8.88378 2.91558 8.85275 2.84069 8.79753 2.78546C8.74231 2.73024 8.66741 2.69922 8.58932 2.69922H7.41148C7.33339 2.69922 7.25849 2.73024 7.20327 2.78546C7.14805 2.84069 7.11702 2.91558 7.11702 2.99368C7.11702 3.07177 7.14805 3.14667 7.20327 3.20189C7.25849 3.25711 7.33339 3.28814 7.41148 3.28814H7.70594V3.59751C7.03051 3.66638 6.39952 3.96614 5.91944 4.44622C5.43936 4.9263 5.1396 5.55729 5.07073 6.23272H3.87798C3.72185 6.23293 3.57218 6.29504 3.46178 6.40544C3.35138 6.51584 3.28927 6.66551 3.28906 6.82164V7.41056C3.28927 7.56668 3.35138 7.71636 3.46178 7.82675C3.57218 7.93715 3.72185 7.99927 3.87798 7.99947H7.11702V11.6699L6.49591 12.0839C6.41516 12.1376 6.34894 12.2104 6.30318 12.2959C6.25742 12.3814 6.23353 12.4769 6.23365 12.5739V12.7108C6.23386 12.8669 6.29597 13.0166 6.40637 13.127C6.51677 13.2374 6.66644 13.2995 6.82257 13.2997H9.17823C9.33436 13.2995 9.48403 13.2374 9.59443 13.127C9.70483 13.0166 9.76694 12.8669 9.76715 12.7108V12.5739C9.76727 12.4769 9.74338 12.3814 9.69762 12.2959C9.65186 12.2104 9.58564 12.1376 9.50489 12.0839ZM8.0004 4.17151C8.5737 4.17245 9.12701 4.38224 9.55683 4.76162C9.98665 5.141 10.2635 5.66398 10.3357 6.23272H5.66515C5.73728 5.66398 6.01415 5.141 6.44397 4.76162C6.87379 4.38224 7.4271 4.17245 8.0004 4.17151ZM3.87798 7.41056V6.82164H11.8284V7.41056H3.87798ZM9.17823 12.7108H6.82257V12.5739L7.44368 12.1599C7.52443 12.1062 7.59065 12.0334 7.63641 11.9479C7.68217 11.8624 7.70606 11.7669 7.70594 11.6699V7.99947H8.29486V11.6699C8.29474 11.7669 8.31863 11.8624 8.36439 11.9479C8.41015 12.0334 8.47637 12.1062 8.55712 12.1599L9.17823 12.5739V12.7108Z" fill="black"/>
<path d="M14.5895 9.88348L15.0632 6.31087C15.0743 6.22786 15.0675 6.14342 15.0434 6.06322C15.0192 5.98302 14.9783 5.9089 14.9232 5.84582C14.8681 5.78274 14.8001 5.73215 14.7239 5.69744C14.6477 5.66272 14.5649 5.64469 14.4812 5.64453H14.1614C14.0321 5.64483 13.9065 5.68772 13.804 5.76658C13.7014 5.84544 13.6278 5.95587 13.5943 6.0808L12.8327 8.92566H11.0175C10.8222 8.92573 10.6325 8.99083 10.4782 9.11069C10.324 9.23055 10.214 9.39834 10.1657 9.58761L10.0816 9.91395C10.0591 9.99996 10.0565 10.0899 10.0739 10.1771C10.0913 10.2643 10.1283 10.3463 10.182 10.4171C10.2358 10.4879 10.3049 10.5456 10.3842 10.5858C10.4634 10.626 10.5508 10.6477 10.6397 10.6492L10.0712 12.9349C10.0619 12.9724 10.06 13.0114 10.0658 13.0496C10.0715 13.0879 10.0847 13.1246 10.1047 13.1578C10.1246 13.1909 10.1509 13.2198 10.182 13.2427C10.2132 13.2657 10.2485 13.2823 10.286 13.2917C10.3092 13.2976 10.3331 13.3005 10.357 13.3005C10.4227 13.3004 10.4864 13.2784 10.5382 13.2379C10.5899 13.1974 10.6266 13.1409 10.6425 13.0771L11.2465 10.6503H13.6549L14.1927 13.0698C14.2072 13.1351 14.2436 13.1936 14.2958 13.2355C14.348 13.2775 14.4129 13.3004 14.4799 13.3005C14.5015 13.3004 14.5229 13.2981 14.544 13.2934C14.6202 13.2765 14.6866 13.23 14.7285 13.1641C14.7705 13.0983 14.7846 13.0185 14.7678 12.9422L14.222 10.4861C14.3215 10.4164 14.4055 10.3269 14.4688 10.2232C14.532 10.1195 14.5731 10.0038 14.5895 9.88348ZM10.6518 10.0609L10.736 9.73444C10.7518 9.67174 10.7881 9.61609 10.8391 9.57628C10.8901 9.53647 10.9529 9.51477 11.0175 9.51458H13.0591C13.1239 9.51457 13.187 9.49318 13.2384 9.45371C13.2898 9.41424 13.3268 9.35891 13.3435 9.29629L14.1619 6.23392H14.4799L14.0058 9.80621C13.9966 9.87633 13.9624 9.94078 13.9095 9.98767C13.8566 10.0346 13.7885 10.0608 13.7178 10.0614H10.6521L10.6518 10.0609Z" fill="black"/>
<path d="M5.81583 10.4228C5.87117 10.3517 5.90941 10.2689 5.9276 10.1807C5.94579 10.0925 5.94345 10.0013 5.92074 9.9141L5.83672 9.58823C5.78849 9.39886 5.67856 9.23094 5.52429 9.11098C5.37001 8.99103 5.18018 8.92588 4.98475 8.92582H3.16932L2.40765 6.08096C2.37424 5.956 2.30058 5.84553 2.19807 5.76664C2.09556 5.68775 1.96992 5.64484 1.84057 5.64453H1.52082C1.43705 5.64468 1.35428 5.66272 1.27804 5.69745C1.2018 5.73217 1.13386 5.78277 1.07876 5.84587C1.02366 5.90897 0.982672 5.98311 0.958538 6.06333C0.934403 6.14355 0.927679 6.228 0.938816 6.31103L1.41246 9.88348C1.42822 9.99841 1.46653 10.1091 1.5252 10.2092C1.58388 10.3092 1.66175 10.3967 1.75435 10.4666L1.20469 12.9422C1.18785 13.0185 1.20196 13.0983 1.24392 13.1641C1.28588 13.23 1.35226 13.2765 1.42848 13.2934C1.44952 13.2981 1.471 13.3004 1.49255 13.3005C1.55952 13.3004 1.62447 13.2775 1.67668 13.2355C1.72889 13.1936 1.76526 13.1351 1.77979 13.0698L2.31751 10.6503H4.72437L5.32837 13.0771C5.34425 13.1408 5.38093 13.1973 5.43259 13.2378C5.48425 13.2783 5.54794 13.3003 5.61356 13.3005C5.6376 13.3005 5.66156 13.2976 5.68486 13.2917C5.7224 13.2823 5.75773 13.2657 5.78884 13.2427C5.81996 13.2198 5.84624 13.1909 5.86619 13.1578C5.88614 13.1246 5.89937 13.0879 5.90512 13.0496C5.91087 13.0114 5.90902 12.9724 5.8997 12.9349L5.33088 10.6503H5.35145C5.44114 10.6507 5.5297 10.6303 5.61024 10.5908C5.69078 10.5514 5.76114 10.4939 5.81583 10.4228ZM2.28422 10.0614C2.2135 10.0608 2.14541 10.0346 2.09248 9.98767C2.03956 9.94078 2.00536 9.87633 1.9962 9.80621L1.52082 6.23345H1.83884L2.65892 9.2966C2.67569 9.35922 2.71265 9.41455 2.76408 9.45402C2.8155 9.49349 2.87851 9.51489 2.94333 9.51489H4.98491C5.04963 9.51509 5.11244 9.5368 5.16347 9.5766C5.2145 9.6164 5.25085 9.67204 5.26681 9.73476L5.35098 10.0609L2.28422 10.0614Z" fill="black"/>
</svg>
