<svg width="37" height="39" viewBox="0 0 37 39" fill="none" xmlns="http://www.w3.org/2000/svg">
<circle cx="14.2428" cy="14.7233" r="14.2428" fill="#E1F5FF"/>
<g clip-path="url(#clip0_2688_39090)">
<path d="M18.8217 8.07031C19.2628 8.16829 19.7158 8.23163 20.1441 8.37015C23.2326 9.36341 25.1236 11.4428 25.6132 14.6363C26.2353 18.6921 23.5479 22.3949 19.4888 23.2235C15.3736 24.063 11.216 21.2598 10.4672 17.1406C9.70909 12.9707 12.3166 9.10496 16.4912 8.21052C16.7301 8.159 16.9706 8.11677 17.2111 8.07031C17.7482 8.07031 18.2845 8.07031 18.8217 8.07031ZM18.0228 10.4884C17.9531 10.4884 17.8834 10.4876 17.8137 10.4884C17.4108 10.4943 17.387 10.518 17.3836 10.9091C17.3819 11.0569 17.3777 11.2055 17.3819 11.3533C17.3887 11.5678 17.2961 11.6996 17.0887 11.7773C16.8584 11.8643 16.6264 11.9597 16.4156 12.0856C15.1 12.8694 14.9767 14.6524 16.1972 15.5705C16.5703 15.8517 17.0233 16.0291 17.444 16.2453C17.812 16.4345 18.2182 16.5679 18.5505 16.8044C19.0758 17.1794 18.978 17.8653 18.3746 18.0958C18.0984 18.2014 17.7644 18.2673 17.4797 18.2175C16.9689 18.1288 16.4683 17.9582 15.9771 17.7859C15.7399 17.7023 15.6218 17.7394 15.5572 17.9725C15.4807 18.2479 15.4051 18.5232 15.3226 18.796C15.2581 19.0114 15.3218 19.1761 15.53 19.2521C15.8912 19.3839 16.2533 19.53 16.6281 19.6077C17.3318 19.7538 17.2638 19.6567 17.2698 20.394C17.2732 20.8577 17.3428 20.9304 17.7984 20.9329C18.6364 20.938 18.6364 20.938 18.6211 20.1001C18.6134 19.6668 18.6398 19.6373 19.0571 19.4886C20.0098 19.1508 20.626 18.4996 20.7169 17.4886C20.8087 16.4657 20.3183 15.7031 19.4217 15.2098C19.1021 15.0341 18.7528 14.9125 18.4248 14.7512C18.0975 14.5907 17.7525 14.4463 17.4635 14.2318C17.053 13.9268 17.1329 13.3897 17.6004 13.1811C17.7669 13.1067 17.9624 13.0721 18.1468 13.0645C18.6908 13.0425 19.2109 13.1574 19.7005 13.3981C19.9087 13.5003 20.0396 13.448 20.1067 13.23C20.1934 12.9479 20.2852 12.6667 20.3634 12.3821C20.4144 12.1971 20.3608 12.0408 20.1645 11.9792C19.8262 11.8719 19.488 11.7587 19.1412 11.6819C18.712 11.5873 18.7001 11.5915 18.6848 11.1472C18.6627 10.4893 18.6627 10.4893 18.0228 10.4884Z" fill="#4C7CE5"/>
<path d="M12.4064 23.0185C13.2708 23.6672 14.2065 24.157 15.2264 24.4797C20.2348 26.0633 25.6027 23.1486 26.9354 18.0894C27.3 16.7042 28.2349 15.9457 29.4978 15.488C29.9219 15.3342 30.3792 15.2684 30.8236 15.1721C31.1245 15.1062 31.3752 15.2067 31.5554 15.4525C31.7424 15.7084 31.7347 15.9728 31.5996 16.2599C31.3905 16.7034 31.1781 17.1502 31.0242 17.6147C30.8457 18.1536 30.918 18.7085 31.0633 19.249C31.0863 19.3343 31.1645 19.4162 31.2367 19.4771C32.628 20.6494 33.6793 22.0607 34.2921 23.7778C34.349 23.9383 34.4323 23.9847 34.5946 23.9822C34.8819 23.9771 35.1726 23.9738 35.4564 24.0118C36.0182 24.0878 36.4602 24.5194 36.4754 25.0819C36.5052 26.1672 36.5077 27.2542 36.4746 28.3396C36.4559 28.9536 35.9128 29.4553 35.3 29.3945C34.6439 29.3294 34.3575 29.5465 34.1314 30.1766C33.6011 31.6521 32.6492 32.8692 31.4636 33.8988C30.7064 34.5567 30.1658 35.3422 30.0111 36.3406C29.9483 36.7468 29.9704 37.1666 29.9644 37.5805C29.9559 38.1877 29.7256 38.42 29.1162 38.4208C27.8643 38.4208 26.6116 38.4217 25.3597 38.4208C24.8344 38.42 24.599 38.1903 24.588 37.6641C24.582 37.3989 24.5871 37.1337 24.5871 36.8549C23.5264 36.8549 22.4904 36.8549 21.3983 36.8549C21.3983 37.0906 21.4009 37.3609 21.3975 37.6311C21.3915 38.1987 21.168 38.42 20.6011 38.42C19.339 38.4208 18.0769 38.4208 16.814 38.42C16.304 38.4192 16.0474 38.1708 16.0389 37.659C16.0142 36.186 15.5026 34.9191 14.4972 33.8262C13.0617 32.2645 12.1328 30.4334 11.6968 28.3607C11.35 26.7086 11.6517 24.418 12.4064 23.0185ZM29.2471 23.2162C29.2479 23.7626 29.6737 24.1917 30.2185 24.1959C30.7693 24.2001 31.229 23.7499 31.2265 23.2094C31.2239 22.6638 30.7701 22.2271 30.2117 22.233C29.6635 22.2381 29.2454 22.6646 29.2471 23.2162Z" fill="#4C7CE5"/>
</g>
<defs>
<clipPath id="clip0_2688_39090">
<rect width="26.164" height="30.3503" fill="white" transform="translate(10.3359 8.07031)"/>
</clipPath>
</defs>
</svg>
