<svg width="38" height="39" viewBox="0 0 38 39" fill="none" xmlns="http://www.w3.org/2000/svg">
<circle cx="14.9411" cy="15.11" r="14.6296" fill="#47AF58" fill-opacity="0.2"/>
<path d="M37.6231 23.4597C37.6231 20.4562 36.7324 17.5201 35.0637 15.0227C33.3951 12.5253 31.0233 10.5788 28.2483 9.42943C25.4734 8.28002 22.4199 7.97928 19.4741 8.56524C16.5282 9.15121 13.8223 10.5976 11.6985 12.7214C9.57462 14.8453 8.12826 17.5512 7.5423 20.497C6.95633 23.4429 7.25707 26.4964 8.40648 29.2713C9.5559 32.0462 11.5024 34.418 13.9997 36.0867C16.4971 37.7554 19.4332 38.646 22.4368 38.646C26.4631 38.6417 30.3233 37.0404 33.1704 34.1933C36.0174 31.3463 37.6188 27.4861 37.6231 23.4597ZM21.3521 29.9682V28.8834H19.1826C18.8949 28.8834 18.619 28.7691 18.4156 28.5657C18.2121 28.3623 18.0979 28.0864 18.0979 27.7987C18.0979 27.511 18.2121 27.2351 18.4156 27.0317C18.619 26.8282 18.8949 26.714 19.1826 26.714H24.6063V24.5445H19.1826C18.8949 24.5445 18.619 24.4302 18.4156 24.2268C18.2121 24.0233 18.0979 23.7474 18.0979 23.4597V19.1208C18.0979 18.8331 18.2121 18.5572 18.4156 18.3538C18.619 18.1504 18.8949 18.0361 19.1826 18.0361H21.3521V16.9513C21.3521 16.6636 21.4663 16.3877 21.6698 16.1843C21.8732 15.9809 22.1491 15.8666 22.4368 15.8666C22.7245 15.8666 23.0004 15.9809 23.2038 16.1843C23.4072 16.3877 23.5215 16.6636 23.5215 16.9513V18.0361H25.691C25.9787 18.0361 26.2546 18.1504 26.458 18.3538C26.6615 18.5572 26.7757 18.8331 26.7757 19.1208C26.7757 19.4085 26.6615 19.6844 26.458 19.8878C26.2546 20.0913 25.9787 20.2055 25.691 20.2055H20.2673V22.375H25.691C25.9787 22.375 26.2546 22.4893 26.458 22.6927C26.6615 22.8961 26.7757 23.1721 26.7757 23.4597V27.7987C26.7757 28.0864 26.6615 28.3623 26.458 28.5657C26.2546 28.7691 25.9787 28.8834 25.691 28.8834H23.5215V29.9682C23.5215 30.2558 23.4072 30.5318 23.2038 30.7352C23.0004 30.9386 22.7245 31.0529 22.4368 31.0529C22.1491 31.0529 21.8732 30.9386 21.6698 30.7352C21.4663 30.5318 21.3521 30.2558 21.3521 29.9682Z" fill="#47AF58"/>
</svg>
