<svg width="41" height="39" viewBox="0 0 41 39" fill="none" xmlns="http://www.w3.org/2000/svg">
<circle cx="14.2428" cy="14.7233" r="14.2428" fill="#FF891C" fill-opacity="0.15"/>
<g clip-path="url(#clip0_2688_39102)">
<path d="M40.9999 29.2918C40.8788 29.8817 40.8118 30.488 40.6293 31.0591C39.4087 34.8722 36.7656 37.2434 32.7195 37.9859C27.3744 38.9677 22.2279 35.4644 21.1913 30.258C20.1838 25.1948 23.5624 20.191 28.7597 19.0496C34.238 17.8471 39.6404 21.19 40.8005 26.5036C40.8836 26.8831 40.9345 27.2687 40.9999 27.6521C40.9999 28.1989 40.9999 28.7458 40.9999 29.2918ZM30.103 24.2341C30.0013 24.2818 29.9117 24.324 29.8213 24.3671C28.6087 24.9437 28.0218 26.2431 28.411 27.4894C28.75 28.5752 29.7502 29.2864 31.0298 29.3505C31.515 29.3748 31.8839 29.7073 31.9162 30.1485C31.9493 30.6038 31.6425 31.0075 31.1945 31.0967C30.7327 31.189 30.2847 30.9269 30.1353 30.4739C30.1095 30.3949 30.0933 30.3136 30.0756 30.2439C29.4701 30.2439 28.8873 30.2439 28.2834 30.2439C28.3569 31.3071 28.8396 32.0996 29.8205 32.5659C30.0538 32.677 30.1127 32.7982 30.1063 33.0275C30.0909 33.5508 30.1014 34.075 30.1014 34.6015C30.7247 34.6015 31.3132 34.6015 31.917 34.6015C31.917 33.9584 31.917 33.3357 31.917 32.7098C32.0091 32.6668 32.0906 32.6285 32.1713 32.5901C33.4016 32.0167 33.9998 30.7126 33.6083 29.4546C33.27 28.3671 32.273 27.6591 30.9894 27.5942C30.5067 27.5699 30.1345 27.2343 30.103 26.7954C30.0707 26.3385 30.3767 25.9364 30.8248 25.848C31.2881 25.7565 31.7346 26.0178 31.8839 26.4708C31.9098 26.5498 31.9267 26.6311 31.9445 26.7008C32.5499 26.7008 33.132 26.7008 33.7358 26.7008C33.6608 25.6391 33.182 24.8435 32.1988 24.3788C31.9655 24.2685 31.9057 24.1472 31.913 23.9172C31.9283 23.3939 31.9178 22.8697 31.9178 22.3432C31.2946 22.3432 30.7061 22.3432 30.103 22.3432C30.103 22.9863 30.103 23.609 30.103 24.2341Z" fill="#FFA826"/>
<path d="M21.3223 8.15234C21.7994 8.2118 22.2781 8.26031 22.7528 8.33306C24.7226 8.63582 26.6011 9.18111 28.2077 10.3789C28.6186 10.6847 29.002 11.0493 29.3185 11.446C30.4544 12.8714 30.3534 14.5573 29.0916 15.8927C28.0454 16.9997 26.7061 17.6357 25.261 18.084C23.1427 18.7412 20.9646 18.9149 18.7527 18.7646C16.8692 18.6363 15.0472 18.2663 13.3349 17.4722C12.2879 16.9864 11.3151 16.3856 10.6668 15.428C10.3754 14.9977 10.218 14.4837 10 14.0081C10 13.6959 10 13.3838 10 13.0709C10.4004 11.4546 11.5686 10.4735 12.9926 9.71544C14.3997 8.96597 15.9215 8.55524 17.5022 8.33071C17.9672 8.265 18.4338 8.21102 18.9004 8.15234C19.7077 8.15234 20.515 8.15234 21.3223 8.15234Z" fill="#FFA826"/>
<path d="M10 17.4062C10.7169 17.8874 11.4023 18.4241 12.1579 18.8387C13.5529 19.6038 15.0851 20.0169 16.661 20.2774C18.257 20.541 19.8627 20.6334 21.4789 20.5113C21.8494 20.4832 22.2192 20.444 22.643 20.4049C22.5655 20.4957 22.5171 20.5606 22.4605 20.6177C21.5314 21.5682 20.783 22.6369 20.2405 23.8354C20.1533 24.0287 20.0508 24.0897 19.8385 24.0858C17.4755 24.0428 15.1917 23.6594 13.0645 22.6134C12.1208 22.1495 11.2473 21.5753 10.6652 20.6999C10.3786 20.2672 10.218 19.7556 10 19.2799C10 18.6556 10 18.0305 10 17.4062Z" fill="#FFA826"/>
<path d="M10 27.9453C10.691 28.4124 11.3498 28.9334 12.0796 29.3339C13.5376 30.1327 15.132 30.581 16.7853 30.8141C17.6208 30.9322 18.4669 30.9768 19.3065 31.0684C19.3993 31.0785 19.5406 31.1607 19.5608 31.2342C19.8788 32.3897 20.3527 33.4795 21.0018 34.4973C21.0107 34.5106 21.0026 34.5341 21.0026 34.5701C20.9493 34.581 20.8928 34.6022 20.8355 34.6037C18.0987 34.696 15.4508 34.3369 12.9837 33.1103C12.0691 32.6557 11.2263 32.0893 10.6644 31.2381C10.3794 30.8047 10.218 30.2946 10 29.819C10 29.1939 10 28.5696 10 27.9453Z" fill="#FFA826"/>
<path d="M10 22.6758C10.691 23.142 11.3506 23.6623 12.0796 24.0644C13.5182 24.8577 15.0964 25.2935 16.7247 25.5407C17.637 25.6791 18.5605 25.7488 19.5204 25.8536C19.3057 26.9614 19.1103 28.0997 19.2653 29.3099C18.8407 29.281 18.4418 29.27 18.0463 29.2247C16.2969 29.0244 14.6016 28.634 13.0249 27.8431C12.304 27.4816 11.6461 27.0381 11.0785 26.4724C10.5328 25.9287 10.1946 25.277 10 24.5495C10 23.9252 10 23.3001 10 22.6758Z" fill="#FFA826"/>
</g>
<defs>
<clipPath id="clip0_2688_39102">
<rect width="31" height="30" fill="white" transform="translate(10 8.15234)"/>
</clipPath>
</defs>
</svg>
