<svg width="43" height="33" viewBox="0 0 43 33" fill="none" xmlns="http://www.w3.org/2000/svg">
<circle cx="14.9411" cy="15.11" r="14.6296" fill="#47AF58" fill-opacity="0.2"/>
<g clip-path="url(#clip0_2688_39112)">
<path d="M11 31.7831C11 25.915 11 20.0468 11 14.1786C11.2154 13.6499 11.6195 13.4796 12.184 13.4805C22.0583 13.4895 31.9326 13.4871 41.8068 13.4871C41.8903 13.4871 41.9738 13.4854 42.0565 13.4887C42.6335 13.5117 42.9983 13.8826 42.9983 14.4558C42.9992 20.1389 42.9992 25.822 42.9983 31.5052C42.9983 32.0775 42.6326 32.4484 42.0565 32.4731C41.973 32.4764 41.8895 32.4747 41.8068 32.4747C31.9326 32.4747 22.0583 32.4722 12.184 32.4813C11.6195 32.4813 11.2163 32.3094 11 31.7831ZM34.3757 27.7685C34.3732 27.7356 34.3773 27.7759 34.3798 27.8154C34.4091 28.4395 34.7689 28.8301 35.315 28.8318C35.8786 28.8326 36.2476 28.4354 36.2451 27.7924C36.2443 27.595 36.3353 27.5374 36.4915 27.4733C38.0078 26.85 38.7968 25.1666 38.2557 23.7037C37.9159 22.7827 37.1987 22.277 36.2952 21.9505C35.7417 21.7507 35.2064 21.4966 34.6829 21.2277C34.5477 21.1578 34.4283 20.9489 34.4082 20.7902C34.359 20.402 34.6579 20.0591 35.0511 19.9662C35.5154 19.8568 35.9295 19.9547 36.3278 20.2055C36.7845 20.4933 37.3498 20.3774 37.622 19.9629C37.9034 19.5345 37.8032 18.9852 37.3515 18.6924C37.0768 18.514 36.7695 18.3775 36.4622 18.2582C36.3128 18.1998 36.2527 18.1497 36.2451 17.9852C36.2201 17.4145 35.8377 17.0469 35.3025 17.0527C34.7848 17.0584 34.3965 17.4326 34.3882 17.9836C34.3848 18.2031 34.2955 18.2771 34.1143 18.3553C32.8619 18.8939 32.2298 20.3535 32.684 21.6183C32.9571 22.3781 33.5741 22.7852 34.2629 23.1026C34.7981 23.3493 35.3517 23.5565 35.902 23.772C36.2568 23.9109 36.5098 24.1313 36.5558 24.5203C36.6351 25.1987 36.0923 25.8278 35.4027 25.8697C34.819 25.9051 34.2721 25.8262 33.7661 25.4931C33.2969 25.1839 32.7324 25.3138 32.4552 25.7456C32.1655 26.197 32.2908 26.757 32.8026 27.0399C33.2869 27.3072 33.8079 27.5086 34.3757 27.7685ZM22.1877 24.3336C20.2723 24.3336 18.356 24.332 16.4406 24.3344C15.8503 24.3353 15.4387 24.7111 15.4328 25.2407C15.427 25.7711 15.8336 26.1732 16.4156 26.174C20.2572 26.1789 24.0998 26.1822 27.9414 26.1633C28.1927 26.1617 28.4875 26.0186 28.6837 25.8525C28.9734 25.6066 29.0202 25.2448 28.859 24.8936C28.6829 24.5096 28.3597 24.3336 27.9347 24.3336C26.0193 24.3344 24.1039 24.3336 22.1877 24.3336ZM20.9377 21.6273C22.4365 21.6273 23.9344 21.629 25.4332 21.6265C26.0252 21.6257 26.436 21.2532 26.4427 20.7236C26.4502 20.1784 26.0394 19.7861 25.4349 19.7853C22.4382 19.782 19.4407 19.782 16.444 19.7886C16.2736 19.7886 16.0899 19.8322 15.9355 19.9029C15.5547 20.0764 15.356 20.5122 15.4487 20.9053C15.5514 21.3379 15.9238 21.6249 16.4114 21.6265C17.9202 21.6298 19.429 21.6273 20.9377 21.6273Z" fill="#47AF58"/>
</g>
<defs>
<clipPath id="clip0_2688_39112">
<rect width="32" height="19" fill="white" transform="translate(11 13.4805)"/>
</clipPath>
</defs>
</svg>
