<svg width="132" height="34" viewBox="0 0 132 34" fill="none" xmlns="http://www.w3.org/2000/svg">
<path d="M4.50846 14.7899C3.50643 15.3171 1.73975 15.6322 1.73975 15.6322L1.73975 33.4853L130.762 33.4853V14.7899C130.762 14.7899 124.765 3.46255 118.303 3.72642C112.808 3.95077 112.196 10.1534 107.228 12.544C102.797 14.6759 99.8305 16.7197 95.0453 15.6322C88.9666 14.2506 90.4588 4.20799 84.2474 3.72642C78.9552 3.31613 77.6397 9.11501 72.6188 10.8595C69.4894 11.9468 67.6158 12.7242 64.3126 12.544C57.1207 12.1516 53.5147 0.191238 49.3616 1.59496C45.2085 2.99868 43.1082 24.6409 33.5799 21.8085C29.0991 20.4765 29.1998 15.0028 24.7201 13.6669C21.8156 12.8008 19.9461 14.2172 16.9677 13.6669C13.3918 13.0064 11.7379 8.5952 8.38465 10.0173C6.18785 10.9489 6.62212 13.678 4.50846 14.7899Z" fill="url(#paint0_linear_2698_42219)" fill-opacity="0.2"/>
<path d="M1.73975 15.6322C1.73975 15.6322 3.50643 15.3171 4.50846 14.7899C6.62212 13.678 6.18785 10.9489 8.38465 10.0173C11.7379 8.5952 13.3918 13.0064 16.9677 13.6669C19.9461 14.2172 21.8156 12.8008 24.7201 13.6669C29.1998 15.0028 29.0991 20.4765 33.5799 21.8085C43.1082 24.6409 45.2085 2.99868 49.3616 1.59496C53.5147 0.191238 57.1207 12.1516 64.3126 12.544C67.6158 12.7242 69.4894 11.9468 72.6188 10.8595C77.6398 9.11502 78.9553 3.31613 84.2474 3.72642C90.4588 4.20799 88.9666 14.2506 95.0453 15.6322C99.8305 16.7197 102.797 14.6759 107.228 12.544C112.196 10.1534 112.808 3.95077 118.303 3.72642C124.765 3.46255 130.762 14.7899 130.762 14.7899" stroke="#F94144" stroke-width="2" stroke-linecap="round"/>
<defs>
<linearGradient id="paint0_linear_2698_42219" x1="66.2507" y1="1.48047" x2="66.2507" y2="33.4853" gradientUnits="userSpaceOnUse">
<stop stop-color="#F54747"/>
<stop offset="1" stop-color="#F55C47" stop-opacity="0"/>
</linearGradient>
</defs>
</svg>
