<svg width="148" height="38" viewBox="0 0 148 38" fill="none" xmlns="http://www.w3.org/2000/svg">
<path d="M4.85316 16.5901C3.72638 17.1885 1.73975 17.5462 1.73975 17.5462L1.73975 37.814L146.825 37.814V16.5901C146.825 16.5901 140.081 3.73063 132.814 4.03019C126.636 4.28488 125.947 11.3264 120.361 14.0403C115.379 16.4606 112.043 18.7809 106.662 17.5462C99.8262 15.9778 101.504 4.57689 94.5194 4.03019C88.5684 3.56441 87.0891 10.1476 81.4431 12.128C77.9241 13.3624 75.8173 14.2449 72.1028 14.0403C64.0156 13.5949 59.9605 0.0168661 55.2904 1.61044C50.6203 3.20402 48.2585 27.7734 37.544 24.5579C32.5053 23.0458 32.6185 16.8318 27.5811 15.3152C24.315 14.3319 22.2128 15.9398 18.8635 15.3152C14.8425 14.5653 12.9826 9.55748 9.21193 11.1719C6.74163 12.2296 7.22997 15.3277 4.85316 16.5901Z" fill="url(#paint0_linear_2698_42222)" fill-opacity="0.2"/>
<path d="M1.73975 17.5462C1.73975 17.5462 3.72638 17.1885 4.85316 16.5901C7.22997 15.3277 6.74163 12.2296 9.21193 11.1719C12.9826 9.55748 14.8425 14.5653 18.8635 15.3152C22.2128 15.9398 24.315 14.3319 27.5811 15.3152C32.6185 16.8318 32.5053 23.0458 37.544 24.5579C48.2585 27.7734 50.6203 3.20402 55.2904 1.61044C59.9605 0.0168661 64.0156 13.5949 72.1028 14.0403C75.8173 14.2449 77.9241 13.3624 81.4431 12.128C87.0892 10.1476 88.5684 3.56441 94.5194 4.03019C101.504 4.57689 99.8262 15.9778 106.662 17.5462C112.043 18.7809 115.379 16.4606 120.361 14.0403C125.947 11.3264 126.636 4.28488 132.814 4.03019C140.081 3.73063 146.825 16.5901 146.825 16.5901" stroke="#F5A547" stroke-width="2" stroke-linecap="round"/>
<defs>
<linearGradient id="paint0_linear_2698_42222" x1="74.2822" y1="1.48047" x2="74.2822" y2="37.814" gradientUnits="userSpaceOnUse">
<stop stop-color="#F5A547"/>
<stop offset="1" stop-color="#F5A547" stop-opacity="0"/>
</linearGradient>
</defs>
</svg>
