<svg width="385" height="108" viewBox="0 0 385 108" fill="none" xmlns="http://www.w3.org/2000/svg">
<path d="M384.836 34.2539H303.977V78.7955H384.836V34.2539Z" fill="#6CACAC"/>
<path d="M373.704 73.9277H315.109V73.2333C315.109 69.0115 312.218 65.5783 308.663 65.5783H308.077V47.4822H308.663C312.218 47.4822 315.109 44.049 315.109 39.8272V39.1328H373.704V39.8272C373.704 44.049 376.596 47.4822 380.15 47.4822H380.736V65.5783H380.15C376.596 65.5783 373.704 69.0115 373.704 73.2333V73.9277ZM316.261 72.5347H372.556C372.841 68.0985 375.833 64.5496 379.563 64.211V48.8452C375.829 48.5066 372.841 44.9534 372.556 40.5215H316.261C315.976 44.9577 312.989 48.5066 309.254 48.8452V64.211C312.985 64.5496 315.976 68.0985 316.261 72.5347Z" fill="#5A9997"/>
<path d="M352.256 48.8504H350.187C349.955 48.2246 349.641 47.6417 349.264 47.1145H351.392L353.191 44.2942L352.252 43.5312H337.734L335.935 46.3515L336.875 47.1145H343.907C344.629 47.1145 345.308 47.3116 345.894 47.6631C346.212 48.006 346.481 48.4089 346.678 48.8504H337.409L335.61 51.6706L336.55 52.4336H346.77C346.151 54.028 344.682 55.151 342.963 55.151H336.096L336.092 58.3784L341.622 68.7552L342.561 69.5181H346.352L340.746 58.7299H343.834C343.862 58.7299 343.887 58.7299 343.915 58.7299C343.935 58.7299 343.955 58.7299 343.975 58.7299C347.388 58.6999 350.195 55.9611 350.617 52.4336H351.4L353.199 49.6133L352.256 48.8504Z" fill="#5A9997"/>
<path d="M348.324 46.3515H350.452L352.252 43.5312H337.734L335.935 46.3515H342.967C344.605 46.3515 346.015 47.3716 346.678 48.8504H337.409L335.61 51.6706H346.995C346.597 53.6594 344.947 55.151 342.967 55.151H336.1L336.096 58.3784L341.626 68.7552H345.417L339.798 57.9713H342.887C342.915 57.9713 342.939 57.9713 342.967 57.9713C342.987 57.9713 343.007 57.9713 343.027 57.9713C346.441 57.9413 349.248 55.2024 349.669 51.6749H350.452L352.252 48.8546H349.485C349.256 47.9331 348.858 47.0845 348.324 46.3515Z" fill="#A2C2C0"/>
<path d="M383.13 31.9648H302.271V76.5064H383.13V31.9648Z" fill="#7BC3C3"/>
<path d="M371.994 71.6386H313.402V70.9443C313.402 66.7224 310.511 63.2892 306.957 63.2892H306.371V45.1932H306.957C310.511 45.1932 313.402 41.76 313.402 37.5381V36.8438H371.998V37.5381C371.998 41.76 374.889 45.1932 378.443 45.1932H379.03V63.2892H378.443C374.889 63.2892 371.998 66.7224 371.998 70.9443V71.6386H371.994ZM314.551 70.2456H370.845C371.13 65.8095 374.122 62.2606 377.853 61.922V46.5561C374.118 46.2175 371.13 42.6643 370.845 38.2325H314.551C314.266 42.6686 311.278 46.2175 307.543 46.5561V61.922C311.278 62.2606 314.266 65.8095 314.551 70.2456Z" fill="#68B0AE"/>
<path d="M350.549 46.5613H348.481C348.248 45.9355 347.935 45.3526 347.557 44.8254H349.686L351.485 42.0051L350.545 41.2422H336.028L334.228 44.0625L335.168 44.8254H342.2C342.923 44.8254 343.602 45.0226 344.188 45.374C344.505 45.7169 344.774 46.1198 344.971 46.5613H335.706L333.907 49.3816L334.847 50.1445H345.067C344.449 51.7389 342.979 52.8619 341.26 52.8619H334.393L334.389 56.0894L339.919 66.4661L340.859 67.2291H344.65L339.035 56.4408H342.124C342.152 56.4408 342.176 56.4408 342.204 56.4408C342.224 56.4408 342.244 56.4408 342.264 56.4408C345.678 56.4108 348.485 53.672 348.906 50.1445H349.69L351.489 47.3242L350.549 46.5613Z" fill="#68B0AE"/>
<path d="M346.617 44.0625H348.746L350.545 41.2422H336.028L334.228 44.0625H341.26C342.899 44.0625 344.308 45.0826 344.971 46.5613H335.706L333.907 49.3816H345.292C344.895 51.3703 343.244 52.8619 341.264 52.8619H334.397L334.393 56.0894L339.923 66.4661H343.714L338.096 55.6822H341.184C341.212 55.6822 341.236 55.6822 341.264 55.6822C341.284 55.6822 341.304 55.6822 341.325 55.6822C344.738 55.6522 347.545 52.9133 347.967 49.3859H348.75L350.549 46.5656H347.782C347.545 45.6441 347.148 44.7954 346.617 44.0625Z" fill="#B5D9D7"/>
<path d="M380.303 29.4922H299.443V74.0337H380.303V29.4922Z" fill="#86D4D4"/>
<path d="M369.171 69.1624H310.575V68.4681C310.575 64.2462 307.684 60.813 304.13 60.813H303.543V42.7127H304.13C307.684 42.7127 310.575 39.2795 310.575 35.0576V34.3633H369.171V35.0576C369.171 39.2795 372.062 42.7127 375.616 42.7127H376.202V60.8088H375.616C372.062 60.8088 369.171 64.242 369.171 68.4638V69.1624ZM311.728 67.7695H368.022C368.307 63.3333 371.299 59.7844 375.03 59.4458V44.08C371.295 43.7414 368.307 40.1881 368.022 35.7563H311.728C311.443 40.1924 308.455 43.7414 304.72 44.08V59.4458C308.451 59.7844 311.443 63.3333 311.728 67.7695Z" fill="#72C1BF"/>
<path d="M347.722 44.0925H345.654C345.421 43.4668 345.108 42.8838 344.73 42.3567H346.859L348.658 39.5364L347.718 38.7734H333.201L331.401 41.5937L332.341 42.3567H339.373C340.096 42.3567 340.774 42.5538 341.361 42.9053C341.678 43.2482 341.947 43.6511 342.144 44.0925H332.875L331.076 46.9128L332.016 47.6758H342.236C341.618 49.2702 340.148 50.3932 338.429 50.3932H331.562L331.558 53.6206L337.088 63.9974L338.028 64.7603H341.819L336.2 53.9764H339.289C339.317 53.9764 339.341 53.9764 339.369 53.9764C339.389 53.9764 339.409 53.9764 339.429 53.9764C342.843 53.9464 345.65 51.2075 346.071 47.68H346.854L348.654 44.8598L347.722 44.0925Z" fill="#72C1BF"/>
<path d="M343.79 41.5937H345.919L347.718 38.7734H333.201L331.401 41.5937H338.433C340.072 41.5937 341.481 42.6138 342.144 44.0925H332.875L331.076 46.9128H342.461C342.064 48.9016 340.413 50.3932 338.433 50.3932H331.566L331.562 53.6206L337.092 63.9974H340.883L335.269 53.2092H338.357C338.385 53.2092 338.409 53.2092 338.437 53.2092C338.457 53.2092 338.477 53.2092 338.497 53.2092C341.911 53.1792 344.718 50.4403 345.14 46.9128H345.923L347.722 44.0925H344.955C344.722 43.171 344.32 42.3266 343.79 41.5937Z" fill="#C3EAE8"/>
<path d="M261.352 97.0335C274.939 97.0335 285.953 85.8104 285.953 71.966C285.953 58.1216 274.939 46.8984 261.352 46.8984C247.765 46.8984 236.751 58.1216 236.751 71.966C236.751 85.8104 247.765 97.0335 261.352 97.0335Z" fill="#FFCC00"/>
<path d="M261.352 91.2033C271.779 91.2033 280.231 82.5909 280.231 71.9669C280.231 61.3429 271.779 52.7305 261.352 52.7305C250.926 52.7305 242.474 61.3429 242.474 71.9669C242.474 82.5909 250.926 91.2033 261.352 91.2033Z" fill="#D68900"/>
<path d="M261.352 90.4732C271.384 90.4732 279.516 82.1868 279.516 71.9651C279.516 61.7434 271.384 53.457 261.352 53.457C251.321 53.457 243.188 61.7434 243.188 71.9651C243.188 82.1868 251.321 90.4732 261.352 90.4732Z" fill="#F3A100"/>
<path d="M270.215 64.5502H268.014C267.765 63.9119 267.436 63.3226 267.031 62.7866H269.3L271.219 59.9181L270.219 59.1406H254.754L252.835 62.0091L253.834 62.7866H261.328C262.099 62.7866 262.818 62.9912 263.448 63.3431C263.786 63.695 264.071 64.1001 264.284 64.5502H254.413L252.493 67.4187L253.493 68.1962H264.38C263.722 69.8166 262.155 70.9583 260.324 70.9583H253.007L253.003 74.2401L258.894 84.7933L259.894 85.5708H263.934L257.951 74.6002H261.24C261.268 74.6002 261.296 74.6002 261.324 74.6002C261.344 74.6002 261.368 74.6002 261.388 74.6002C265.027 74.5674 268.014 71.7849 268.464 68.1962H269.296L271.215 65.3277L270.215 64.5502Z" fill="#D68900"/>
<path d="M266.027 62.0091H268.296L270.215 59.1406H254.75L252.831 62.0091H260.324C262.067 62.0091 263.569 63.0485 264.28 64.5502H254.409L252.489 67.4187H264.617C264.195 69.4402 262.433 70.9583 260.324 70.9583H253.007L253.003 74.2401L258.895 84.7933H262.934L256.951 73.8227H260.24C260.268 73.8227 260.296 73.8227 260.324 73.8227C260.344 73.8227 260.368 73.8227 260.388 73.8227C264.027 73.7899 267.015 71.0074 267.464 67.4187H268.296L270.215 64.5502H267.268C267.015 63.6132 266.593 62.7539 266.027 62.0091Z" fill="#FFCC00"/>
<path d="M30.7865 59.0702C47.2544 59.0702 60.6043 45.8513 60.6043 29.5449C60.6043 13.2385 47.2544 0.0195312 30.7865 0.0195312C14.3186 0.0195312 0.96875 13.2385 0.96875 29.5449C0.96875 45.8513 14.3186 59.0702 30.7865 59.0702Z" fill="#FFCC00"/>
<path d="M53.1239 34.4741C55.8726 22.2596 48.1009 10.1513 35.7654 7.42959C23.4298 4.70787 11.2017 12.4033 8.45299 24.6179C5.70431 36.8325 13.476 48.9408 25.8116 51.6625C38.1471 54.3842 50.3753 46.6887 53.1239 34.4741Z" fill="#D68900"/>
<path d="M52.243 34.443C54.9726 22.7108 47.5803 11.0088 35.7318 8.30597C23.8833 5.60315 12.0655 12.923 9.33591 24.6553C6.60632 36.3875 13.9986 48.0895 25.8471 50.7923C37.6956 53.4951 49.5134 46.1753 52.243 34.443Z" fill="#F3A100"/>
<path d="M41.5288 20.8077H38.8582C38.5571 20.0602 38.1555 19.3603 37.6655 18.732H40.4164L42.7416 15.356L41.5288 14.4414H22.7868L20.4616 17.8174L21.6744 18.732H30.7542C31.6859 18.732 32.5614 18.9706 33.3244 19.3881C33.734 19.8017 34.0794 20.2789 34.3364 20.8077H22.3691L20.0439 24.1838L21.2567 25.0984H34.4528C33.6537 27.0071 31.7542 28.3511 29.5374 28.3511H20.6744L20.6704 32.2163L27.8106 44.6467L29.0234 45.5613H33.9187L26.6661 32.6457H30.6538C30.686 32.6457 30.7221 32.6457 30.7583 32.6457C30.7864 32.6457 30.8105 32.6457 30.8346 32.6457C35.244 32.6099 38.8663 29.3293 39.4084 25.1023H40.4164L42.7416 21.7263L41.5288 20.8077Z" fill="#D68900"/>
<path d="M36.4527 17.8135H39.2036L41.5288 14.4375H22.7868L20.4616 17.8135H29.5415C31.6538 17.8135 33.477 19.0383 34.3364 20.8078H22.3691L20.0439 24.1838H34.746C34.236 26.5658 32.0996 28.3552 29.5415 28.3552H20.6744L20.6664 32.2203L27.8066 44.6508H32.7019L25.4533 31.7312H29.4411C29.4732 31.7312 29.5093 31.7312 29.5455 31.7312C29.5736 31.7312 29.5977 31.7312 29.6218 31.7312C34.0312 31.6954 37.6535 28.4148 38.1956 24.1878H39.2036L41.5288 20.8118H37.9587C37.6535 19.7063 37.1395 18.6963 36.4527 17.8135Z" fill="#FFCC00"/>
<path d="M120.548 100.426H68.1182V107.929H120.548V100.426Z" fill="#FFCC00"/>
<path opacity="0.5" d="M86.0862 100.426H68.1182V107.929H86.0862V100.426Z" fill="#FFCC00"/>
<path opacity="0.5" d="M120.544 100.426H103.332V107.929H120.544V100.426Z" fill="#FFCC00"/>
<path d="M118.637 92.9453H66.208V100.449H118.637V92.9453Z" fill="#FFCC00"/>
<path opacity="0.5" d="M80.1225 92.9453H66.208V100.449H80.1225V92.9453Z" fill="#FFCC00"/>
<path opacity="0.5" d="M118.637 92.9453H96.5508V100.449H118.637V92.9453Z" fill="#FFCC00"/>
<path d="M124.353 85.4102H71.9233V92.9138H124.353V85.4102Z" fill="#FFCC00"/>
<path opacity="0.5" d="M92.4206 85.4102H71.9233V92.9138H92.4206V85.4102Z" fill="#FFCC00"/>
<path opacity="0.5" d="M124.353 85.4102H109.445V92.9138H124.353V85.4102Z" fill="#FFCC00"/>
<path d="M121.098 77.9648H68.6689V85.4685H121.098V77.9648Z" fill="#FFCC00"/>
<path opacity="0.5" d="M84.2912 77.9648H68.6689V85.4685H84.2912V77.9648Z" fill="#FFCC00"/>
<path opacity="0.5" d="M121.099 77.9648H99.8296V85.4685H121.099V77.9648Z" fill="#FFCC00"/>
<path opacity="0.5" d="M118.439 100.426H68.1182V101.545H118.439V100.426Z" fill="#FFCC00"/>
<path opacity="0.5" d="M121.098 85.4688H71.9238V86.6304H121.098V85.4688Z" fill="#FFCC00"/>
<path d="M199.976 70.0508H155.835V95.3926H199.976V70.0508Z" fill="#F9A91C"/>
<path d="M188.699 27.7805C188.699 27.7805 186.773 26.9642 184.365 27.37L187.014 20.8398L190.086 22.3558L188.699 27.7805Z" fill="#141930"/>
<path d="M186.98 24.279C188.326 24.279 189.416 23.2223 189.416 21.9188C189.416 20.6153 188.326 19.5586 186.98 19.5586C185.634 19.5586 184.543 20.6153 184.543 21.9188C184.543 23.2223 185.634 24.279 186.98 24.279Z" fill="#E6976D"/>
<path d="M178.405 19.4965C178.405 19.4965 177.624 23.4052 176.84 24.2775C176.055 25.1497 174.971 25.966 175.578 26.8989C176.185 27.8318 177.567 28.0557 178.708 27.8877C179.912 27.7105 181.173 27.4213 181.958 27.7711C182.743 28.121 182.199 23.2233 182.199 23.2233L180.634 18.1484C180.634 18.1578 178.164 19.4405 178.405 19.4965Z" fill="#141930"/>
<path d="M158.162 50.6914C158.162 50.6914 155.754 51.7782 152.542 52.6365C152.542 52.6365 155.913 55.048 159.524 52.324L158.162 50.6914Z" fill="#E6976D"/>
<path d="M176.218 31.1797C176.218 31.1797 172.207 44.2401 158.162 50.691L159.365 53.1025C159.365 53.1025 168.996 51.7031 179.189 39.0299L176.218 31.1797Z" fill="#E59303"/>
<path d="M153.847 87.0195C153.847 87.0195 151.141 90.9283 148.367 91.9732C148.367 91.9732 151.377 92.2064 153.062 90.6904C154.747 89.1745 153.847 87.0195 153.847 87.0195Z" fill="#E6976D"/>
<path d="M161.917 69.2051C161.917 69.2051 170.546 87.6855 170.998 91.2025C171.451 94.7241 168.124 99.855 168.124 99.855H169.636L174.634 93.8426L169.034 71.1128L174.032 70.5251L171.461 64.2188L162.076 64.0742L161.917 69.2051Z" fill="#E37463"/>
<path d="M162.457 56.8833C162.457 56.8833 158.369 56.0017 157.459 59.5233C156.549 63.045 152.229 90.761 152.229 90.761L156.163 89.7348L162.823 65.2419L173.873 65.6804C173.878 65.6804 168.36 58.791 162.457 56.8833Z" fill="#E6976D"/>
<path d="M156.163 89.7383C156.163 89.7383 156.77 91.4968 155.71 92.8168C154.651 94.1368 152.903 96.1705 152.903 96.1705L152.451 95.4382L153.438 92.6722L147.279 93.4045L143.798 91.4968C143.798 91.4968 148.05 92.0472 152.229 90.7645L156.163 89.7383Z" fill="#5369BB"/>
<path d="M169.636 99.8523L174.634 93.8398C175.847 95.2578 175.544 96.5266 175.544 96.5266L175.342 101.513H174.432L174.027 97.2122L170.093 101.023H165.957L168.129 99.8476H169.636V99.8523Z" fill="#5369BB"/>
<path d="M186.662 29.7104L191.024 31.5575C192.098 32.0099 192.666 33.1574 192.358 34.2535C191.506 37.2807 190.374 45.1963 191.52 52.8133H177.47C177.47 52.8133 175.452 40.7744 175.64 32.1545C175.664 31.0677 176.478 30.1535 177.58 29.9576L181.466 29.2812L186.662 29.7104Z" fill="#F9A91C"/>
<path d="M188.775 32.4978C188.65 34.1304 186.233 35.2825 183.373 35.0773C180.513 34.872 178.293 33.3841 178.418 31.7515C178.543 30.119 180.961 28.9669 183.821 29.1721C186.681 29.3773 188.901 30.8653 188.775 32.4978Z" fill="#E37463"/>
<path d="M186.127 24.2031C186.127 24.2031 186.199 27.7807 186.791 29.9264C186.791 29.9264 184.134 30.5701 180.956 29.9264C180.956 29.9264 182.212 28.709 182.434 24.9168L186.127 24.2031Z" fill="#E37463"/>
<path d="M176.849 34.0977L173.82 39.7509C173.82 39.7509 174.779 42.8295 178.92 42.4703L183.205 39.7509L176.849 34.0977Z" fill="#F9A91C"/>
<path d="M191.521 52.8164C191.521 52.8164 193.654 58.3904 193.774 61.9867C193.89 65.4243 192.859 69.7529 184.803 70.3453C177.229 70.9004 176.021 71.0869 170.218 71.0869C170.218 71.0869 168.615 59.8457 164.643 56.7392C164.643 56.7392 170.637 54.8921 177.47 52.8211H191.521V52.8164Z" fill="#42528E"/>
<path d="M192.286 32.8611C192.06 32.7026 191.853 32.5953 191.708 32.5253C189.744 31.5831 187.692 34.615 187.692 34.615C187.692 34.615 184.558 40.8653 176.574 46.4253C176.829 48.5289 177.085 50.2921 177.258 51.4302C181.192 49.807 185.67 47.3069 189.32 43.5054C190.071 42.7264 190.702 41.9987 191.236 41.3177C191.491 38.2346 191.958 35.6924 192.363 34.2558C192.493 33.78 192.45 33.2949 192.286 32.8611Z" fill="#D68505"/>
<path d="M188.015 33.9032C188.015 33.9032 181.914 45.0185 166.145 50.1914L167.266 52.7568C167.266 52.7568 180.426 51.4368 189.296 42.8449C197.241 35.1486 193.114 32.4899 192.103 31.9628C190.182 30.946 188.015 33.9032 188.015 33.9032Z" fill="#F3A100"/>
<path d="M166.145 50.1875L160.247 52.3238L161.369 54.9685C161.369 54.9685 164.339 55.435 167.267 52.7529L166.145 50.1875Z" fill="#E6976D"/>
<path opacity="0.4" d="M186.354 27.4476C186.31 27.0511 186.272 26.664 186.243 26.3002L182.473 24.9102L182.439 24.9148C182.29 27.5082 181.654 28.8936 181.269 29.5139C183.908 29.3367 185.521 28.2452 186.354 27.4476Z" fill="#E37463"/>
<path d="M183.138 28.1403H182.757C180.701 28.1403 179.03 26.5264 179.03 24.5301V17.9766H186.86V24.5301C186.864 26.5218 185.198 28.1403 183.138 28.1403Z" fill="#E6976D"/>
<path d="M184.904 18.1582C184.904 18.1582 184.962 20.5464 186.589 22.0064C186.589 22.0064 187.254 20.3179 188.092 21.4233C188.93 22.5288 188.149 23.6996 186.768 23.8721C186.768 23.8721 186.344 26.96 187.673 28.3033C189.002 29.6467 188.997 27.1932 190.745 27.4264C192.493 27.6597 193.634 27.1932 192.671 25.6773C191.708 24.1613 190.08 20.3132 189.902 18.4474C189.724 16.5817 189.122 13.6104 186.955 14.3101C186.955 14.3101 186.657 12.3883 184.49 12.2671C182.323 12.1458 180.821 14.1328 179.136 13.8436C177.45 13.5544 175.765 14.1935 175.524 16.1758C175.231 18.6153 176.126 20.3738 179.256 19.9634C179.246 19.9634 183.883 19.2637 184.904 18.1582Z" fill="#1E2346"/>
<path d="M203.587 55.5508H135.328V58.0649H203.587V55.5508Z" fill="#1A427D"/>
<path d="M204.367 56.5469H134.543V57.0646H204.367V56.5469Z" fill="#A9BFF8"/>
<path d="M202.518 58.0586H136.854V59.2434H202.518V58.0586Z" fill="#102F54"/>
<path d="M132.733 103.147H130.556L138.573 59.25H141.891L132.733 103.147Z" fill="#E6976D"/>
<path d="M205.268 103.147H207.444L199.427 59.25H196.109L205.268 103.147Z" fill="#E6976D"/>
<path d="M163.025 54.3883H140.755L136.854 40.3438H159.124L163.025 54.3883Z" fill="#F0F1F5"/>
<path d="M163.078 54.3883H162.413L158.513 40.3438L159.173 41.0108L163.078 54.3883Z" fill="#CBCED8"/>
<path d="M172.414 54.3906H140.755V55.5521H172.414V54.3906Z" fill="#CBCED8"/>
<path d="M150.342 47.5393C150.578 48.7614 149.884 49.9135 148.791 50.1094C147.703 50.3053 146.629 49.4704 146.393 48.2483C146.157 47.0262 146.851 45.8741 147.944 45.6782C149.037 45.4776 150.111 46.3126 150.342 47.5393Z" fill="#CBCED8"/>
</svg>
