<svg width="133" height="34" viewBox="0 0 133 34" fill="none" xmlns="http://www.w3.org/2000/svg">
<path d="M3.99065 14.9288C2.98023 15.4604 1.19873 15.7781 1.19873 15.7781L1.19873 33.7809L131.302 33.7809V14.9288C131.302 14.9288 125.255 3.50651 118.739 3.77259C113.198 3.99882 112.58 10.2534 107.571 12.6641C103.103 14.8139 100.112 16.8748 95.2865 15.7781C89.1568 14.385 90.6615 4.25819 84.398 3.77259C79.0615 3.35886 77.735 9.20636 72.6719 10.9655C69.5163 12.0619 67.627 12.8458 64.2961 12.6641C57.044 12.2684 53.4076 0.207775 49.2198 1.62326C45.0319 3.03875 42.9139 24.8624 33.3058 22.0063C28.7874 20.6631 28.889 15.1435 24.3717 13.7964C21.4428 12.923 19.5577 14.3513 16.5543 13.7964C12.9485 13.1303 11.2806 8.68218 7.89934 10.1162C5.68412 11.0556 6.12203 13.8076 3.99065 14.9288Z" fill="url(#paint0_linear_2698_42216)" fill-opacity="0.2"/>
<path d="M1.19873 15.7781C1.19873 15.7781 2.98023 15.4604 3.99065 14.9288C6.12203 13.8076 5.68413 11.0556 7.89934 10.1162C11.2806 8.68218 12.9485 13.1303 16.5543 13.7964C19.5577 14.3513 21.4428 12.923 24.3717 13.7964C28.889 15.1435 28.7874 20.6631 33.3058 22.0063C42.9139 24.8624 45.0319 3.03875 49.2198 1.62326C53.4077 0.207775 57.044 12.2684 64.2961 12.6641C67.627 12.8458 69.5163 12.0619 72.6719 10.9655C77.735 9.20636 79.0615 3.35886 84.398 3.77259C90.6615 4.25819 89.1568 14.385 95.2865 15.7781C100.112 16.8748 103.103 14.8139 107.571 12.6641C112.58 10.2534 113.198 3.99882 118.739 3.77259C125.255 3.50651 131.302 14.9288 131.302 14.9288" stroke="#25CF88" stroke-width="2" stroke-linecap="round"/>
<defs>
<linearGradient id="paint0_linear_2698_42216" x1="66.2505" y1="1.50781" x2="66.2505" y2="33.7809" gradientUnits="userSpaceOnUse">
<stop stop-color="#47F582"/>
<stop offset="1" stop-color="#A9F547" stop-opacity="0"/>
</linearGradient>
</defs>
</svg>
