<?xml version="1.0" encoding="UTF-8"?>
<svg version="1.1" xmlns="http://www.w3.org/2000/svg" width="500" height="500">
<path d="M0 0 C2.22015702 0.02914813 4.43793257 0.02049961 6.65820312 0.00756836 C19.00387927 0.02460357 30.92840423 1.49054135 42.40039062 6.34155273 C43.32899902 6.73225952 43.32899902 6.73225952 44.27636719 7.13085938 C59.14498666 13.46915933 71.57166494 21.74807943 83.58789062 32.46655273 C84.2453125 33.05049805 84.90273438 33.63444336 85.58007812 34.23608398 C104.72266832 52.32537376 118.50337705 78.74292815 123.58789062 104.46655273 C123.58789062 105.78655273 123.58789062 107.10655273 123.58789062 108.46655273 C124.29582764 108.2702124 125.00376465 108.07387207 125.7331543 107.87158203 C129.07707513 106.9524832 132.4260926 106.05335101 135.77539062 105.15405273 C137.44311523 104.69095703 137.44311523 104.69095703 139.14453125 104.21850586 C176.62252281 94.24537085 213.30844914 98.46655273 252.58789062 98.46655273 C252.58789062 231.12655273 252.58789062 363.78655273 252.58789062 500.46655273 C87.58789062 500.46655273 -77.41210938 500.46655273 -247.41210938 500.46655273 C-247.41210938 367.80655273 -247.41210938 235.14655273 -247.41210938 98.46655273 C-151.38806128 98.46655273 -151.38806128 98.46655273 -118.41210938 108.46655273 C-118.29818848 107.77327881 -118.18426758 107.08000488 -118.06689453 106.36572266 C-117.03118624 100.3374882 -115.75076796 94.57128224 -113.78710938 88.77905273 C-113.39906128 87.63194824 -113.39906128 87.63194824 -113.00317383 86.46166992 C-106.20174795 67.0564831 -95.14099674 50.60498739 -81.41210938 35.46655273 C-80.52458984 34.45334961 -80.52458984 34.45334961 -79.61914062 33.41967773 C-69.38003814 22.36460564 -55.07065503 13.72780938 -41.34960938 7.84155273 C-40.72006348 7.56408203 -40.09051758 7.28661133 -39.44189453 7.00073242 C-26.68695981 1.75693336 -13.69146084 -0.19520319 0 0 Z M-54.41210938 74.46655273 C-64.08479664 85.56833065 -70.40400269 98.34754376 -74.41210938 112.46655273 C-74.63769531 113.25674805 -74.86328125 114.04694336 -75.09570312 114.86108398 C-75.65340437 117.05727304 -76.04807375 119.23089915 -76.41210938 121.46655273 C-76.61320313 122.26706055 -76.81429687 123.06756836 -77.02148438 123.89233398 C-77.49086288 126.9104378 -77.49128226 128.58875838 -76.41210938 131.46655273 C-72.70348665 134.89825049 -68.59233874 137.48132308 -64.34033203 140.18676758 C-34.82987244 159.77322354 -12.50257816 192.52513635 1.58789062 224.46655273 C5.28798949 221.99982016 6.39212122 219.17314695 8.21289062 215.27905273 C23.42367808 183.91609358 46.48831122 155.17318734 75.46679688 135.51342773 C76.29050781 134.94108398 77.11421875 134.36874023 77.96289062 133.77905273 C78.671875 133.32143555 79.38085938 132.86381836 80.11132812 132.39233398 C82.46247765 129.32588765 81.97510352 126.12661702 81.58789062 122.46655273 C81.16725984 119.67554769 80.57575208 116.9563102 79.90039062 114.21655273 C79.71887451 113.47493896 79.5373584 112.7333252 79.3503418 111.96923828 C73.70339522 89.80587216 59.8600615 70.80683606 40.58789062 58.46655273 C8.01911915 40.39852873 -29.28382723 47.94079005 -54.41210938 74.46655273 Z M-203.41210938 147.46655273 C-200.27916832 171.63013399 -195.7568831 194.88334956 -186.41210938 217.46655273 C-185.90357422 218.69583496 -185.90357422 218.69583496 -185.38476562 219.94995117 C-176.77735333 240.45167221 -165.46235505 259.21787715 -151.41210938 276.46655273 C-150.61289063 277.45139648 -149.81367188 278.43624023 -148.99023438 279.45092773 C-117.89308144 317.25351173 -72.59434438 345.56180417 -23.41210938 351.46655273 C-22.09210938 351.46655273 -20.77210938 351.46655273 -19.41210938 351.46655273 C-19.06706623 317.81953799 -20.63423654 287.40460067 -32.41210938 255.46655273 C-32.78851563 254.42756836 -33.16492188 253.38858398 -33.55273438 252.31811523 C-40.89440873 233.44691002 -52.53926813 215.21901435 -66.47460938 200.54467773 C-68.41210938 198.46655273 -68.41210938 198.46655273 -70.43164062 195.90795898 C-72.20928514 193.71658262 -73.95184527 191.96862073 -76.09960938 190.15405273 C-78.24092963 188.3343227 -80.35773772 186.51772605 -82.40429688 184.59155273 C-106.63822215 161.91225663 -142.05477767 147.14557264 -175.28710938 147.36889648 C-176.5020105 147.37101891 -176.5020105 147.37101891 -177.74145508 147.3731842 C-180.29837931 147.3787289 -182.85521213 147.39127066 -185.41210938 147.40405273 C-187.15820185 147.4090749 -188.90429571 147.41363654 -190.65039062 147.41772461 C-194.90433146 147.42868014 -199.15820498 147.4459058 -203.41210938 147.46655273 Z M143.77539062 153.02905273 C142.55299683 153.40368652 142.55299683 153.40368652 141.3059082 153.78588867 C120.69307844 160.42568326 102.97205806 171.51070313 86.58789062 185.46655273 C85.5050289 186.3213172 84.42178232 187.17559471 83.33789062 188.02905273 C80.46927981 190.57168505 78.04417906 193.27079867 75.59179688 196.20874023 C73.87891093 198.13865851 72.11576576 199.90456523 70.26367188 201.69702148 C66.46597356 205.47009531 63.31597852 209.5510836 60.21289062 213.90405273 C59.65053711 214.69191162 59.08818359 215.47977051 58.50878906 216.29150391 C34.66723009 250.21228277 24.35539394 290.05969979 24.49023438 331.16577148 C24.49210333 332.85398822 24.49352497 334.5422055 24.49452209 336.23042297 C24.49830971 340.63782289 24.50810719 345.04518898 24.51922607 349.45257568 C24.52952167 353.96439151 24.53403704 358.47621288 24.5390625 362.98803711 C24.54973345 371.81422438 24.56676381 380.64038433 24.58789062 389.46655273 C27.88098889 389.03145338 31.17201151 388.58216864 34.46289062 388.13061523 C35.83960938 387.94897827 35.83960938 387.94897827 37.24414062 387.76367188 C66.73398014 383.67507177 95.09587381 369.3595895 118.58789062 351.46655273 C119.88919922 350.48428711 119.88919922 350.48428711 121.21679688 349.48217773 C128.39200331 343.90786005 135.00174804 337.71432064 141.58789062 331.46655273 C142.34328125 330.75370117 143.09867187 330.04084961 143.87695312 329.30639648 C170.47672018 303.50144319 189.02446787 267.67796193 199.58789062 232.46655273 C199.79510742 231.78786133 200.00232422 231.10916992 200.21582031 230.40991211 C208.37865355 203.26633047 209.65678043 175.59081694 209.58789062 147.46655273 C204.50572774 147.39100602 199.42390889 147.33731042 194.34130859 147.30175781 C192.62119844 147.28689897 190.90112451 147.26660618 189.18115234 147.24023438 C173.65174701 147.00852002 158.6959237 148.4237648 143.77539062 153.02905273 Z M-204.41210938 280.46655273 C-204.41210938 337.22655273 -204.41210938 393.98655273 -204.41210938 452.46655273 C-143.36210937 452.46655273 -82.31210937 452.46655273 -19.41210938 452.46655273 C-19.41210938 435.30655273 -19.41210938 418.14655273 -19.41210938 400.46655273 C-25.69242187 399.41467773 -25.69242187 399.41467773 -32.09960938 398.34155273 C-44.49471621 396.17543857 -56.44369502 393.33153597 -68.41210938 389.46655273 C-69.14929199 389.23355469 -69.88647461 389.00055664 -70.64599609 388.76049805 C-93.73764095 381.3873946 -114.82467922 369.62680463 -134.41210938 355.46655273 C-135.11207031 354.96897461 -135.81203125 354.47139648 -136.53320312 353.95874023 C-142.57163125 349.56487361 -148.21154829 344.66007128 -153.86962891 339.79321289 C-155.24370632 338.61139322 -156.62250569 337.4350687 -158.00195312 336.25952148 C-162.17161315 332.64581613 -165.93064294 328.91870602 -169.48632812 324.70092773 C-171.7771298 322.0430402 -174.19016485 319.51732376 -176.59960938 316.96655273 C-185.77778256 307.0728255 -193.6433234 296.09652219 -200.73486328 284.63110352 C-201.60488873 283.22877881 -202.50516159 281.8452857 -203.41210938 280.46655273 C-203.74210937 280.46655273 -204.07210937 280.46655273 -204.41210938 280.46655273 Z M208.58789062 318.46655273 C207.11531346 320.61521878 205.6882468 322.77894802 204.27539062 324.96655273 C199.95006356 331.58011218 195.34414991 337.92422022 190.52416992 344.18530273 C190.03988525 344.81823242 189.55560059 345.45116211 189.05664062 346.10327148 C188.62802734 346.65716553 188.19941406 347.21105957 187.7578125 347.78173828 C186.4944464 349.60112256 185.533142 351.46607991 184.58789062 353.46655273 C183.92789063 353.46655273 183.26789063 353.46655273 182.58789062 353.46655273 C180.95113555 355.08454776 180.95113555 355.08454776 179.27539062 357.15405273 C177.15144378 359.66457567 175.03287719 362.07478695 172.65039062 364.34155273 C170.35573217 366.21218973 170.35573217 366.21218973 170.58789062 368.46655273 C170.0078125 368.7153418 169.42773438 368.96413086 168.83007812 369.22045898 C166.26549574 370.64572341 164.70918275 372.25629098 162.71289062 374.40405273 C156.83781601 380.41440867 150.27795013 385.41011241 143.58789062 390.46655273 C142.67007813 391.16780273 141.75226563 391.86905273 140.80664062 392.59155273 C124.21122043 404.98813167 105.93816257 415.5937025 86.48144531 422.76489258 C84.56368542 423.47552202 82.65834425 424.21431507 80.75195312 424.95483398 C62.70987902 431.80104815 43.64349467 435.6921736 24.58789062 438.46655273 C24.58789062 443.08655273 24.58789062 447.70655273 24.58789062 452.46655273 C85.63789063 452.46655273 146.68789063 452.46655273 209.58789062 452.46655273 C209.58789062 408.24655273 209.58789062 364.02655273 209.58789062 318.46655273 C209.25789062 318.46655273 208.92789063 318.46655273 208.58789062 318.46655273 Z " fill="#3B7EC0" transform="translate(247.412109375,-0.466552734375)"/>
<path d="M0 0 C2.22015702 0.02914813 4.43793257 0.02049961 6.65820312 0.00756836 C19.00387927 0.02460357 30.92840423 1.49054135 42.40039062 6.34155273 C43.32899902 6.73225952 43.32899902 6.73225952 44.27636719 7.13085938 C59.14498666 13.46915933 71.57166494 21.74807943 83.58789062 32.46655273 C84.2453125 33.05049805 84.90273438 33.63444336 85.58007812 34.23608398 C104.72266832 52.32537376 118.50337705 78.74292815 123.58789062 104.46655273 C123.58789062 105.78655273 123.58789062 107.10655273 123.58789062 108.46655273 C124.24789062 108.79655273 124.90789062 109.12655273 125.58789062 109.46655273 C121.52081216 111.23484772 117.43836877 112.96455954 113.33789062 114.65405273 C112.50773438 114.99823242 111.67757812 115.34241211 110.82226562 115.69702148 C108.58789062 116.46655273 108.58789062 116.46655273 105.58789062 116.46655273 C105.58789062 117.12655273 105.58789062 117.78655273 105.58789062 118.46655273 C100.58975794 121.59038566 96.35621178 123.25216933 90.58789062 124.46655273 C90.58789062 125.12655273 90.58789062 125.78655273 90.58789062 126.46655273 C89.92789063 126.46655273 89.26789063 126.46655273 88.58789062 126.46655273 C88.58789062 127.12655273 88.58789062 127.78655273 88.58789062 128.46655273 C86.27789062 128.79655273 83.96789062 129.12655273 81.58789062 129.46655273 C81.49813965 128.90895264 81.40838867 128.35135254 81.31591797 127.77685547 C77.04219861 101.87109085 67.81413913 80.18896274 46.65039062 63.59155273 C30.3681539 51.94061548 11.12534118 47.67475805 -8.59960938 50.09155273 C-29.98923954 53.72855287 -47.74039004 65.67461877 -60.34570312 83.26342773 C-69.6664453 97.71145908 -74.79168594 113.45210669 -76.41210938 130.46655273 C-80.20312128 129.01704818 -83.79957317 127.31482707 -87.41210938 125.46655273 C-87.41210938 124.80655273 -87.41210938 124.14655273 -87.41210938 123.46655273 C-88.64960938 123.09530273 -88.64960938 123.09530273 -89.91210938 122.71655273 C-92.4893368 121.79611437 -94.64372896 120.87707427 -97.03710938 119.62280273 C-101.54890283 117.33779766 -106.18729836 115.50951848 -110.91210938 113.71655273 C-111.73453125 113.40073242 -112.55695313 113.08491211 -113.40429688 112.75952148 C-115.40552683 111.99160766 -117.40862378 111.22856221 -119.41210938 110.46655273 C-113.3178231 81.50076857 -101.23644256 57.54432053 -81.41210938 35.46655273 C-80.81914062 34.78850586 -80.22617188 34.11045898 -79.61523438 33.41186523 C-69.36201582 22.36587205 -55.07510161 13.72971694 -41.34960938 7.84155273 C-40.72006348 7.56408203 -40.09051758 7.28661133 -39.44189453 7.00073242 C-26.68695981 1.75693336 -13.69146084 -0.19520319 0 0 Z " fill="#F5A221" transform="translate(247.412109375,-0.466552734375)"/>
<path d="M0 0 C2.19442089 3.29163133 2.25546195 4.28259472 2.2784729 8.10624695 C2.28963638 9.1621402 2.30079987 10.21803345 2.31230164 11.30592346 C2.31446182 12.46397995 2.31662201 13.62203644 2.31884766 14.81518555 C2.33391609 16.64463715 2.33391609 16.64463715 2.34928894 18.51104736 C2.37490571 21.85584153 2.39174567 25.20046558 2.40471697 28.54531837 C2.42033646 32.04074431 2.44713042 35.53608397 2.4727478 39.03144836 C2.51955659 45.65056033 2.55629049 52.26968849 2.58942068 58.8888815 C2.62762727 66.42453204 2.67704123 73.96009597 2.72740483 81.49567354 C2.83075589 96.99705312 2.92000592 112.49848123 3 128 C3.66 128 4.32 128 5 128 C5.625 130.375 5.625 130.375 6 133 C5.34 133.66 4.68 134.32 4 135 C2.32460491 134.71374803 0.65927682 134.36836033 -1 134 C-3.53861473 133.91046553 -6.04868402 133.86920523 -8.58662415 133.87974548 C-9.3422699 133.87889106 -10.09791566 133.87803663 -10.87645978 133.87715632 C-13.4037481 133.87551166 -15.93096977 133.88100628 -18.45825195 133.88647461 C-20.27177428 133.88675673 -22.08529671 133.88659827 -23.89881897 133.8860321 C-28.81986355 133.88574509 -33.74088378 133.89162646 -38.66192269 133.89860606 C-43.80555361 133.90485543 -48.94918508 133.90544465 -54.09281921 133.90663147 C-63.83204909 133.90974011 -73.57126776 133.91794722 -83.31049269 133.92798096 C-94.39866702 133.93915659 -105.48684188 133.94465621 -116.57502043 133.94967639 C-139.38335318 133.9601302 -162.19167596 133.97772062 -185 134 C-185 133.34 -185 132.68 -185 132 C-123.95 132 -62.9 132 0 132 C0 88.44 0 44.88 0 0 Z " fill="#3B73A8" transform="translate(457,320)"/>
<path d="M0 0 C2 1 2 1 3.1875 3.375 C4 6 4 6 3 9 C2.01 7.35 1.02 5.7 0 4 C-0.33 60.1 -0.66 116.2 -1 174 C60.05 174 121.1 174 184 174 C183.67 174.66 183.34 175.32 183 176 C123.93 176 64.86 176 4 176 C3.505 176.99 3.505 176.99 3 178 C1 177 1 177 -2 175 C-2.66 174.67 -3.32 174.34 -4 174 C-3.34 116.91 -2.68 59.82 -2 1 C-1.34 0.67 -0.68 0.34 0 0 Z " fill="#3874A8" transform="translate(44,278)"/>
<path d="M0 0 C-24.42647221 17.58705999 -50.4934513 30.12574045 -79.5625 38 C-80.7680957 38.33016113 -80.7680957 38.33016113 -81.99804688 38.66699219 C-87.63136944 40.12287685 -87.63136944 40.12287685 -91 39 C-88 37 -88 37 -85.0625 36.125 C-81.92817952 35.21687245 -81.92817952 35.21687245 -79.9375 32.9375 C-77.65172197 30.65172197 -76.159201 30.35102233 -73 30 C-72.67 30.66 -72.34 31.32 -72 32 C-71.34 31.34 -70.68 30.68 -70 30 C-68.6625093 30.31623967 -67.32978746 30.65279084 -66 31 C-63.42708132 30.76876259 -63.42708132 30.76876259 -60.8125 30.1875 C-59.93207031 30.01605469 -59.05164063 29.84460938 -58.14453125 29.66796875 C-57.43683594 29.44753906 -56.72914063 29.22710937 -56 29 C-55.67 28.34 -55.34 27.68 -55 27 C-51.73308233 25.7580313 -48.42645889 24.68572727 -45.1015625 23.609375 C-41.29156767 21.63240035 -40.69371964 19.84047068 -39 16 C-35.8125 14.625 -35.8125 14.625 -33 14 C-32.34 14.99 -31.68 15.98 -31 17 C-31 16.34 -31 15.68 -31 15 C-29.68 14.67 -28.36 14.34 -27 14 C-26.67 12.35 -26.34 10.7 -26 9 C-25.01 8.67 -24.02 8.34 -23 8 C-23 7.34 -23 6.68 -23 6 C-22.01 6.495 -22.01 6.495 -21 7 C-20.505 8.485 -20.505 8.485 -20 10 C-18.38991848 9.09376275 -16.78714075 8.17454201 -15.1875 7.25 C-14.29417969 6.73953125 -13.40085937 6.2290625 -12.48046875 5.703125 C-10.0067392 4.00462723 -8.70788124 2.42590938 -7 0 C-4.00887259 -1.21514551 -3.16098841 -1.0536628 0 0 Z " fill="#3473B1" transform="translate(387,394)"/>
<path d="M0 0 C2 1 2 1 3.1875 3.375 C4 6 4 6 3 9 C2.01 7.35 1.02 5.7 0 4 C-0.33 59.77 -0.66 115.54 -1 173 C-1.33 173 -1.66 173 -2 173 C-2 116.24 -2 59.48 -2 1 C-1.34 0.67 -0.68 0.34 0 0 Z " fill="#4C78A2" transform="translate(44,278)"/>
<path d="M0 0 C0.66 0.33 1.32 0.66 2 1 C1.67 1.99 1.34 2.98 1 4 C0.236875 4.28875 -0.52625 4.5775 -1.3125 4.875 C-4.69925368 6.29271084 -5.98047549 7.97071324 -8 11 C-8.77833534 13.18214568 -8.77833534 13.18214568 -9 15 C-10.423125 15.0928125 -10.423125 15.0928125 -11.875 15.1875 C-12.90625 15.455625 -13.9375 15.72375 -15 16 C-16.33903214 18.34754398 -16.33903214 18.34754398 -17 21 C-17.66 21.99 -18.32 22.98 -19 24 C-19.99 23.67 -20.98 23.34 -22 23 C-27.52644055 26.58217042 -31.87219478 31.9434386 -36 37 C-36.66 36.67 -37.32 36.34 -38 36 C-33.35463449 30.97979232 -28.68810887 25.98031467 -24 21 C-23.12085938 20.06414062 -22.24171875 19.12828125 -21.3359375 18.1640625 C-14.77356721 11.38221495 -7.50412792 5.68756669 0 0 Z " fill="#5081B2" transform="translate(320,136)"/>
<path d="M0 0 C-1.05565533 3.28426103 -2.61660352 4.57151556 -5.5 6.25 C-9 8 -9 8 -11 8 C-11.33 8.66 -11.66 9.32 -12 10 C-13.65 9.34 -15.3 8.68 -17 8 C-17.33 8.99 -17.66 9.98 -18 11 C-19.31647119 11.69937532 -20.65022151 12.36729133 -22 13 C-22.33 13.66 -22.66 14.32 -23 15 C-25.21484375 16.10546875 -25.21484375 16.10546875 -27.9375 17.1875 C-28.83339844 17.55230469 -29.72929687 17.91710937 -30.65234375 18.29296875 C-33 19 -33 19 -35 18 C-25.97038149 10.88728375 -12.05040842 0 0 0 Z " fill="#EEAA2B" transform="translate(215,5)"/>
<path d="M0 0 C-2.96687001 1.64826111 -5.65626525 2.44271087 -9 3 C-9.0928125 3.8971875 -9.0928125 3.8971875 -9.1875 4.8125 C-10.3236757 7.87143458 -12.17330142 8.55041099 -15 10 C-15 9.34 -15 8.68 -15 8 C-16.03125 8.165 -17.0625 8.33 -18.125 8.5 C-21.48244326 8.93321848 -24.62336157 9.08235703 -28 9 C-28 9.66 -28 10.32 -28 11 C-36.03571429 13.27678571 -36.03571429 13.27678571 -40 12 C-36.66666667 10.66666667 -33.33333333 9.33333333 -30 8 C-28.72576172 7.48373047 -28.72576172 7.48373047 -27.42578125 6.95703125 C-8.9363196 -0.33752286 -8.9363196 -0.33752286 0 0 Z " fill="#4D85BD" transform="translate(398,102)"/>
<path d="M0 0 C0 0.99 0 1.98 0 3 C-0.99 3 -1.98 3 -3 3 C-3 4.32 -3 5.64 -3 7 C-4.2684375 6.69835937 -4.2684375 6.69835937 -5.5625 6.390625 C-9.55200429 5.93727224 -12.16940305 6.5907404 -16 7.75 C-17.175625 8.09546875 -18.35125 8.4409375 -19.5625 8.796875 C-23.02561207 9.92319818 -23.02561207 9.92319818 -26.2109375 11.6328125 C-29.66191804 13.32446963 -32.19804105 13.14081329 -36 13 C-38.25328412 13.20643199 -38.25328412 13.20643199 -40 14 C-40.99 15.485 -40.99 15.485 -42 17 C-42.33 16.34 -42.66 15.68 -43 15 C-45.32156597 14.59270772 -47.6568787 14.25561323 -50 14 C-50 13.67 -50 13.34 -50 13 C-49.45923828 12.92072266 -48.91847656 12.84144531 -48.36132812 12.75976562 C-33.01979659 10.43217366 -14.68769111 0 0 0 Z " fill="#3C73AA" transform="translate(325,375)"/>
<path d="M0 0 C0.33 0.66 0.66 1.32 1 2 C2.98 1.34 4.96 0.68 7 0 C7.96398647 2.8919594 8 4.9994375 8 8 C11.91063224 9.47047336 11.91063224 9.47047336 16 10 C15.67 11.65 15.34 13.3 15 15 C15.66 15 16.32 15 17 15 C17 15.66 17 16.32 17 17 C17.99 17.33 18.98 17.66 20 18 C20 18.66 20 19.32 20 20 C16.17053121 18.36926927 13.24127695 15.81740049 10.125 13.125 C6.24419449 9.78016251 2.3094668 6.7657772 -2 4 C-1.34 2.68 -0.68 1.36 0 0 Z " fill="#4B83B7" transform="translate(150,168)"/>
<path d="M0 0 C0.66 1.65 1.32 3.3 2 5 C1.278125 4.855625 0.55625 4.71125 -0.1875 4.5625 C-3.02923816 4.6929173 -3.02923816 4.6929173 -4.33984375 6.55859375 C-5.18877979 7.84102905 -6.00630127 9.14488537 -6.7890625 10.46875 C-7.38847656 11.22671875 -7.38847656 11.22671875 -8 12 C-8.99 12 -9.98 12 -11 12 C-11.33 12.66 -11.66 13.32 -12 14 C-12.598125 14.26039062 -13.19625 14.52078125 -13.8125 14.7890625 C-16.79173897 16.43828407 -18.08192133 18.58029944 -20 21.375 C-22.44572222 24.9193865 -24.86160907 28.04374783 -28 31 C-28 23.0162222 -16.3517284 13.56869036 -11 8 C-2.68831169 0 -2.68831169 0 0 0 Z " fill="#EAA538" transform="translate(180,24)"/>
<path d="M0 0 C0.99 0 1.98 0 3 0 C2.33333333 6 1.66666667 12 1 18 C-2.7910119 16.55049545 -6.3874638 14.84827434 -10 13 C-10 12.34 -10 11.68 -10 11 C-9.071875 11.061875 -8.14375 11.12375 -7.1875 11.1875 C-4.04545578 11.29936957 -4.04545578 11.29936957 -2.1875 9.625 C-0.93012827 7.99913203 -0.93012827 7.99913203 0 6 C-0.66 6 -1.32 6 -2 6 C-2 6.99 -2 7.98 -2 9 C-2.66 9 -3.32 9 -4 9 C-4 7.35 -4 5.7 -4 4 C-2.68 3.34 -1.36 2.68 0 2 C0 1.34 0 0.68 0 0 Z " fill="#E89C35" transform="translate(170,112)"/>
<path d="M0 0 C-4.33027514 3.60992691 -8.96311567 6.59099705 -13.74023438 9.55664062 C-17.77598993 12.10159249 -21.39133725 14.87616523 -25 18 C-25.66 17.67 -26.32 17.34 -27 17 C-25.74874616 13.24623848 -24.4347596 12.75926711 -21 11 C-20.34 11 -19.68 11 -19 11 C-19 10.01 -19 9.02 -19 8 C-17.35 8 -15.7 8 -14 8 C-14 7.01 -14 6.02 -14 5 C-13.34 4.67 -12.68 4.34 -12 4 C-11.731875 3.175 -11.46375 2.35 -11.1875 1.5 C-10 -1 -10 -1 -7.6875 -1.9375 C-4.63274463 -2.00854082 -2.72848253 -1.32526294 0 0 Z " fill="#4886C2" transform="translate(364,164)"/>
<path d="M0 0 C6.63279282 -0.23576278 12.73992445 0.64783335 19.25 1.875 C20.2296875 2.04902344 21.209375 2.22304687 22.21875 2.40234375 C26.49089265 3.19023891 30.16640675 3.88632525 34 6 C32.54176788 6.0270043 31.08339325 6.04639787 29.625 6.0625 C28.81289062 6.07410156 28.00078125 6.08570312 27.1640625 6.09765625 C25 6 25 6 23 5 C18.85496339 4.75212983 18.85496339 4.75212983 15 6 C12.92489412 5.29067506 10.97153842 4.39652478 8.97265625 3.49609375 C8.32167969 3.33238281 7.67070313 3.16867188 7 3 C6.01 3.66 5.02 4.32 4 5 C1.3125 5.125 1.3125 5.125 -1 5 C-1 4.34 -1 3.68 -1 3 C-0.34 3 0.32 3 1 3 C0.67 2.01 0.34 1.02 0 0 Z " fill="#5381B4" transform="translate(81,99)"/>
<path d="M0 0 C0.66 0.33 1.32 0.66 2 1 C1.67 1.66 1.34 2.32 1 3 C0.34 3 -0.32 3 -1 3 C-1.23589844 3.56460937 -1.47179687 4.12921875 -1.71484375 4.7109375 C-3.29234942 7.52071963 -5.24051286 9.39619051 -7.5625 11.625 C-10.69042054 14.51070681 -10.69042054 14.51070681 -13 18 C-13.66 18 -14.32 18 -15 18 C-14.40895235 13.15340923 -13.02055843 9.39251833 -11 5 C-9.35 5 -7.7 5 -6 5 C-6 4.34 -6 3.68 -6 3 C-4.02 2.67 -2.04 2.34 0 2 C0 1.34 0 0.68 0 0 Z " fill="#3E78B3" transform="translate(431,350)"/>
<path d="M0 0 C0.33 0.66 0.66 1.32 1 2 C0.22265625 3.7265625 0.22265625 3.7265625 -0.9375 5.625 C-1.618125 6.73875 -2.29875 7.8525 -3 9 C-3.66 9 -4.32 9 -5 9 C-6.10836423 10.88316159 -6.10836423 10.88316159 -7 13 C-6.67 13.66 -6.34 14.32 -6 15 C-6.99 15 -7.98 15 -9 15 C-10.27253436 18.64793184 -11.32829194 22.1936543 -12 26 C-12.99 26.33 -13.98 26.66 -15 27 C-15.61760154 28.817821 -15.61760154 28.817821 -15.875 30.9375 C-16.328125 33.12109375 -16.328125 33.12109375 -17 35 C-19.625 36.5 -19.625 36.5 -22 37 C-16.68657277 23.39185606 -8.68649971 11.66472818 0 0 Z " fill="#4E7DAE" transform="translate(276,180)"/>
<path d="M0 0 C5.91712679 4.15457839 11.01139933 8.77258334 16 14 C15.01 14.33 14.02 14.66 13 15 C12.67 15.66 12.34 16.32 12 17 C11.01 17.33 10.02 17.66 9 18 C8.34 17.67 7.68 17.34 7 17 C7.875 12.25 7.875 12.25 9 10 C5.62182575 9.15545644 3.32534757 8.89155081 0 10 C0 6.66666667 0 3.33333333 0 0 Z " fill="#4E82B6" transform="translate(187,142)"/>
<path d="M0 0 C0.66 0.33 1.32 0.66 2 1 C-2.75 5.875 -2.75 5.875 -5 7 C-5.99 6.67 -6.98 6.34 -8 6 C-8 6.66 -8 7.32 -8 8 C-9.32 8 -10.64 8 -12 8 C-12.226875 8.61875 -12.45375 9.2375 -12.6875 9.875 C-14.38416443 12.6219805 -16.05251711 12.86635273 -19 14 C-19.33 14.99 -19.66 15.98 -20 17 C-22.31 17 -24.62 17 -27 17 C-27 16.01 -27 15.02 -27 14 C-23.535 13.505 -23.535 13.505 -20 13 C-20 12.34 -20 11.68 -20 11 C-19.34 11 -18.68 11 -18 11 C-18 10.34 -18 9.68 -18 9 C-16.06305322 8.18618205 -14.12542289 7.37399084 -12.1875 6.5625 C-11.10855469 6.11003906 -10.02960938 5.65757813 -8.91796875 5.19140625 C-6.9704874 4.39624987 -4.99561057 3.66520352 -3 3 C-3 2.34 -3 1.68 -3 1 C-2.01 0.67 -1.02 0.34 0 0 Z " fill="#6386A8" transform="translate(356,115)"/>
<path d="M0 0 C0.66 0.66 1.32 1.32 2 2 C4.85558587 2.17732712 4.85558587 2.17732712 6.8125 1.3125 C10.12733613 0.83895198 12.1684082 2.39114102 15 4 C15 4.33 15 4.66 15 5 C12.23010036 5.67076489 9.45920258 6.33676317 6.6875 7 C5.90181641 7.19078125 5.11613281 7.3815625 4.30664062 7.578125 C3.1706543 7.84882813 3.1706543 7.84882813 2.01171875 8.125 C1.31522217 8.29257813 0.61872559 8.46015625 -0.09887695 8.6328125 C-2 9 -2 9 -5 9 C-5 8.01 -5 7.02 -5 6 C-4.01 6 -3.02 6 -2 6 C-1.34 4.02 -0.68 2.04 0 0 Z " fill="#4985C1" transform="translate(395,144)"/>
<path d="M0 0 C18.315 0.495 18.315 0.495 37 1 C37 1.66 37 2.32 37 3 C24.79 3 12.58 3 0 3 C0 2.01 0 1.02 0 0 Z " fill="#4F7DAE" transform="translate(44,144)"/>
<path d="M0 0 C2.1219765 2.1219765 2.63950484 3.35870667 3.62109375 6.140625 C3.91693359 6.96433594 4.21277344 7.78804687 4.51757812 8.63671875 C4.82115234 9.49910156 5.12472656 10.36148438 5.4375 11.25 C7.81536178 17.99091415 7.81536178 17.99091415 10.78515625 24.484375 C11.18605469 25.31453125 11.58695313 26.1446875 12 27 C11.67 27.66 11.34 28.32 11 29 C8 24.25 8 24.25 8 22 C5.69 22 3.38 22 1 22 C1.08378906 21.25234375 1.16757812 20.5046875 1.25390625 19.734375 C1.35574219 18.74953125 1.45757812 17.7646875 1.5625 16.75 C1.66691406 15.77546875 1.77132812 14.8009375 1.87890625 13.796875 C1.98974468 11.2368648 1.77738092 9.41851841 1 7 C0.34 7 -0.32 7 -1 7 C-0.67 4.69 -0.34 2.38 0 0 Z " fill="#4C7FB5" transform="translate(55,201)"/>
<path d="M0 0 C1.65 0.33 3.3 0.66 5 1 C4.01 2.485 4.01 2.485 3 4 C3.33 4.99 3.66 5.98 4 7 C3.01 8.485 3.01 8.485 2 10 C2.30840599 12.15274948 2.30840599 12.15274948 3 14 C1.68 14.33 0.36 14.66 -1 15 C-1 14.01 -1 13.02 -1 12 C-1.66 12 -2.32 12 -3 12 C-3.33 12.99 -3.66 13.98 -4 15 C-5 13 -5 13 -4.00390625 9.9609375 C-3.52824219 8.77757812 -3.05257813 7.59421875 -2.5625 6.375 C-2.08941406 5.18648437 -1.61632812 3.99796875 -1.12890625 2.7734375 C-0.75636719 1.85820312 -0.38382812 0.94296875 0 0 Z " fill="#4980B9" transform="translate(443,242)"/>
<path d="M0 0 C3.37308761 1.12436254 4.15123097 2.07342733 6.375 4.75 C11.05845708 10.6188634 11.05845708 10.6188634 17 15 C17.28875 15.639375 17.5775 16.27875 17.875 16.9375 C18.81479114 19.13522665 18.81479114 19.13522665 20.8828125 19.9140625 C23.25295087 21.12974233 24.35736468 22.36188744 26 24.4375 C28.13472219 27.03817678 30.15911656 29.14249929 33 31 C32.67 31.66 32.34 32.32 32 33 C31.35933594 32.41992188 30.71867187 31.83984375 30.05859375 31.2421875 C29.19363281 30.46101563 28.32867187 29.67984375 27.4375 28.875 C26.07818359 27.64716797 26.07818359 27.64716797 24.69140625 26.39453125 C22.4528383 24.40288806 20.1828847 22.47231013 17.875 20.5625 C16.92625 19.716875 15.9775 18.87125 15 18 C15 17.34 15 16.68 15 16 C14.4121875 15.74734375 13.824375 15.4946875 13.21875 15.234375 C7.44322574 12.02123122 3.44289684 5.50863494 0 0 Z " fill="#4774A4" transform="translate(67,312)"/>
<path d="M0 0 C1.32 0.33 2.64 0.66 4 1 C3.01 1 2.02 1 1 1 C1 1.66 1 2.32 1 3 C-3.99813269 6.12383293 -8.23167884 7.7856166 -14 9 C-14 9.66 -14 10.32 -14 11 C-14.66 11 -15.32 11 -16 11 C-16 11.66 -16 12.32 -16 13 C-18.31 13.33 -20.62 13.66 -23 14 C-23 11.69 -23 9.38 -23 7 C-22.34 7 -21.68 7 -21 7 C-21 7.99 -21 8.98 -21 10 C-20.4225 9.67 -19.845 9.34 -19.25 9 C-17 8 -17 8 -13 8 C-13 7.34 -13 6.68 -13 6 C-10.03 5.34 -7.06 4.68 -4 4 C-4 3.34 -4 2.68 -4 2 C-2.68 2 -1.36 2 0 2 C0 1.34 0 0.68 0 0 Z " fill="#EA9E38" transform="translate(352,115)"/>
<path d="M0 0 C1.65 0 3.3 0 5 0 C5.33 1.32 5.66 2.64 6 4 C7.98 4 9.96 4 12 4 C12 4.66 12 5.32 12 6 C12.9075 6.268125 13.815 6.53625 14.75 6.8125 C17.72991834 7.90131632 19.68590359 8.86391101 22 11 C22 11.66 22 12.32 22 13 C18.105071 11.84204813 14.48770459 10.33623423 10.8125 8.625 C5.31711145 6.08111821 -0.2804633 3.98026512 -6 2 C-2.25 0.875 -2.25 0.875 0 2 C0 1.34 0 0.68 0 0 Z " fill="#5283B3" transform="translate(116,152)"/>
<path d="M0 0 C2.06315726 2.06315726 2.75765438 3.45148432 3.875 6.10546875 C4.22046875 6.92466797 4.5659375 7.74386719 4.921875 8.58789062 C5.27765625 9.44576172 5.6334375 10.30363281 6 11.1875 C6.53367187 12.44530273 6.53367187 12.44530273 7.078125 13.72851562 C12 25.49142957 12 25.49142957 12 32 C11.34 32 10.68 32 10 32 C9.71125 31.195625 9.4225 30.39125 9.125 29.5625 C8.26737432 26.8673532 8.26737432 26.8673532 6 26 C6.22429687 25.33484375 6.44859375 24.6696875 6.6796875 23.984375 C7.11618124 19.9175309 5.70906756 16.90391584 4.125 13.25 C3.84269531 12.56550781 3.56039063 11.88101563 3.26953125 11.17578125 C2.03030116 7.84439864 2.03030116 7.84439864 0 5 C-0.04063832 3.33382885 -0.042721 1.66611905 0 0 Z " fill="#E19F44" transform="translate(357,68)"/>
<path d="M0 0 C1.60463449 0.31008884 3.20869231 0.62316287 4.8125 0.9375 C5.70582031 1.11152344 6.59914063 1.28554687 7.51953125 1.46484375 C10 2 10 2 13 3 C13 3.66 13 4.32 13 5 C14.1446875 5.185625 14.1446875 5.185625 15.3125 5.375 C18 6 18 6 21 8 C17.46319951 8.08038183 14.39220461 8.01766138 11 7 C10.2575 6.814375 9.515 6.62875 8.75 6.4375 C8.1725 6.293125 7.595 6.14875 7 6 C7 5.67 7 5.34 7 5 C6.05125 5.20625 5.1025 5.4125 4.125 5.625 C3.09375 5.74875 2.0625 5.8725 1 6 C0.34 5.34 -0.32 4.68 -1 4 C-0.34 4 0.32 4 1 4 C0.67 2.68 0.34 1.36 0 0 Z " fill="#4E86BC" transform="translate(115,105)"/>
<path d="M0 0 C2.97 0.495 2.97 0.495 6 1 C3.1729515 3.19664918 0.27959494 5.07330688 -2.8125 6.875 C-7.04960149 9.38587496 -11.04054639 12.07344733 -15 15 C-13.66234568 8.55493827 -13.66234568 8.55493827 -10.6875 6.0625 C-7.89110811 4.95694972 -5.9756394 4.74494519 -3 5 C-3 4.34 -3 3.68 -3 3 C-2.01 2.67 -1.02 2.34 0 2 C0 1.34 0 0.68 0 0 Z " fill="#E3A833" transform="translate(216,52)"/>
<path d="M0 0 C1.32 0 2.64 0 4 0 C4 0.99 4 1.98 4 3 C5.65 3.33 7.3 3.66 9 4 C9.99 7.63 10.98 11.26 12 15 C12.66 15 13.32 15 14 15 C16.125 19.625 16.125 19.625 15 23 C14.41992188 21.99839844 13.83984375 20.99679688 13.2421875 19.96484375 C9.25545992 13.15706842 5.39290396 6.80774273 0 1 C0 0.67 0 0.34 0 0 Z " fill="#E4A03C" transform="translate(305,72)"/>
<path d="M0 0 C0.87454834 0.00523682 1.74909668 0.01047363 2.65014648 0.01586914 C3.59438477 0.0190918 4.53862305 0.02231445 5.51147461 0.02563477 C6.50469727 0.03401367 7.49791992 0.04239258 8.52124023 0.05102539 C9.51833008 0.05553711 10.51541992 0.06004883 11.54272461 0.06469727 C14.01478872 0.07652532 16.48673541 0.0930069 18.95874023 0.11352539 C18.95874023 0.44352539 18.95874023 0.77352539 18.95874023 1.11352539 C18.12850342 1.18083862 18.12850342 1.18083862 17.28149414 1.24951172 C3.85014952 2.14942287 3.85014952 2.14942287 -9.06860352 5.62524414 C-11.63136215 6.25959034 -13.51459933 5.76826001 -16.04125977 5.11352539 C-13.520299 2.59256463 -11.96217895 2.59147765 -8.47875977 2.05102539 C-5.43548293 1.57217429 -2.79350485 0.15536177 0 0 Z " fill="#E9A442" transform="translate(237.041259765625,46.886474609375)"/>
<path d="M0 0 C0.66 0.33 1.32 0.66 2 1 C1.50628906 1.45890625 1.01257813 1.9178125 0.50390625 2.390625 C-0.45708984 3.31101562 -0.45708984 3.31101562 -1.4375 4.25 C-2.07558594 4.85328125 -2.71367187 5.4565625 -3.37109375 6.078125 C-5.11705354 8.13810634 -5.43153422 9.41799654 -6 12 C-8.41389497 14.27978969 -10.46432849 15.79095746 -13.5625 17 C-16.41474309 18.17015101 -17.95488582 19.72765091 -20 22 C-20.66 21.67 -21.32 21.34 -22 21 C-21.26680542 20.31224487 -21.26680542 20.31224487 -20.51879883 19.6105957 C-18.28257715 17.51206915 -16.04753026 15.4122954 -13.8125 13.3125 C-13.04357422 12.59126953 -12.27464844 11.87003906 -11.48242188 11.12695312 C-7.59534182 7.47343152 -3.74211077 3.80210453 0 0 Z " fill="#4277AB" transform="translate(395,324)"/>
<path d="M0 0 C3.18815321 -0.35423925 4.67132692 -0.20226035 7.4375 1.5 C9 4 9 4 8.765625 5.87109375 C8.37594074 7.26395169 7.95987418 8.64966266 7.51953125 10.02734375 C6.84544265 12.58685308 7.21854302 14.49933766 8 17 C5.66005246 14.11852174 4.20096568 11.39858364 2.875 7.9375 C2.54242188 7.08027344 2.20984375 6.22304687 1.8671875 5.33984375 C1.21189746 3.57174134 0.59628778 1.78886334 0 0 Z " fill="#487EB8" transform="translate(208,240)"/>
<path d="M0 0 C1.48773574 2.7834801 2.49255578 5.42532905 3.2890625 8.4765625 C3.50820313 9.311875 3.72734375 10.1471875 3.953125 11.0078125 C4.17484375 11.87148437 4.3965625 12.73515625 4.625 13.625 C4.85445312 14.49640625 5.08390625 15.3678125 5.3203125 16.265625 C7 22.72442336 7 22.72442336 7 25 C5.35 24.67 3.7 24.34 2 24 C1.34 21.69 0.68 19.38 0 17 C0.66 17 1.32 17 2 17 C1.855625 16.27554688 1.71125 15.55109375 1.5625 14.8046875 C0.60449608 9.81508377 -0.27607149 5.10732262 0 0 Z " fill="#4C7FB3" transform="translate(48,175)"/>
<path d="M0 0 C0.33 0.99 0.66 1.98 1 3 C0.01 3.66 -0.98 4.32 -2 5 C-3.01868662 5.98095748 -4.02351983 6.97702078 -5 8 C-5.99 7.67 -6.98 7.34 -8 7 C-8.33 6.01 -8.66 5.02 -9 4 C-11.31 4 -13.62 4 -16 4 C-11.93477827 -0.06522173 -5.49940708 -0.27497035 0 0 Z " fill="#ECA834" transform="translate(232,1)"/>
<path d="M0 0 C-21.26666667 15 -21.26666667 15 -25 15 C-25 14.34 -25 13.68 -25 13 C-24.34 13 -23.68 13 -23 13 C-23 12.01 -23 11.02 -23 10 C-21.90751953 9.84144531 -21.90751953 9.84144531 -20.79296875 9.6796875 C-17.76939459 8.94388064 -15.8723774 7.87214892 -13.3125 6.125 C-12.16201172 5.35542969 -12.16201172 5.35542969 -10.98828125 4.5703125 C-8.76264698 2.97889752 -8.76264698 2.97889752 -7 0 C-4.02096037 -1.15317663 -3.13440869 -1.0448029 0 0 Z " fill="#3B70A9" transform="translate(387,394)"/>
<path d="M0 0 C0 0.99 0 1.98 0 3 C0.99 3 1.98 3 3 3 C6.77777778 4.55555556 6.77777778 4.55555556 8 7 C9.32 6.67 10.64 6.34 12 6 C11.67 7.32 11.34 8.64 11 10 C3.755702 7.86233829 -2.46718285 4.77315981 -9 1 C-5.52452927 -0.94566951 -3.87493656 -1.07637127 0 0 Z " fill="#3B74AE" transform="translate(151,373)"/>
<path d="M0 0 C5.05946835 -0.24882631 9.20365775 -0.09001456 14.0625 1.375 C21.23910929 3.53207202 28.57421735 4.20804075 36 5 C36 5.66 36 6.32 36 7 C23.73298246 5.89799842 11.96626642 3.91377173 0 1 C0 0.67 0 0.34 0 0 Z " fill="#4372A2" transform="translate(192,393)"/>
<path d="M0 0 C0 0.99 0 1.98 0 3 C-2 5 -2 5 -5 5.25 C-9.76216127 5.12918407 -14.36860114 4.04369552 -19 3 C-19 2.67 -19 2.34 -19 2 C-12.6221448 0.82706111 -6.49678438 -0.29530838 0 0 Z " fill="#5087BC" transform="translate(418,99)"/>
<path d="M0 0 C3.625 0.375 3.625 0.375 7 1 C5.39089587 4.21820826 2.02010443 4.77168513 -1.1875 6 C-1.84814453 6.26039063 -2.50878906 6.52078125 -3.18945312 6.7890625 C-7.08976093 8.31376328 -11.01433827 9.71070352 -15 11 C-15 10.34 -15 9.68 -15 9 C-11.8842011 6.2180367 -9.1710304 5 -5 5 C-4.67 4.34 -4.34 3.68 -4 3 C-3.34 2.67 -2.68 2.34 -2 2 C-1.34 1.34 -0.68 0.68 0 0 Z " fill="#5381B2" transform="translate(381,152)"/>
<path d="M0 0 C0.36463732 1.74784829 0.7163078 3.49840502 1.0625 5.25 C1.25972656 6.22453125 1.45695312 7.1990625 1.66015625 8.203125 C1.98397535 10.868119 1.85503199 12.48871723 1 15 C0.34 13.35 -0.32 11.7 -1 10 C-1.99 10.33 -2.98 10.66 -4 11 C-4.33 10.01 -4.66 9.02 -5 8 C-5.33 8 -5.66 8 -6 8 C-6 6.02 -6 4.04 -6 2 C-1.125 0 -1.125 0 0 0 Z " fill="#4C84BA" transform="translate(46,157)"/>
<path d="M0 0 C0.66 0 1.32 0 2 0 C2.33 1.98 2.66 3.96 3 6 C3.66 6 4.32 6 5 6 C6 11.75 6 11.75 6 14 C6.99 14.33 7.98 14.66 9 15 C8.67 18.96 8.34 22.92 8 27 C7.67 27 7.34 27 7 27 C6.74605469 25.85402344 6.49210937 24.70804688 6.23046875 23.52734375 C5.88316194 21.99731647 5.53548599 20.46737295 5.1875 18.9375 C5.02185547 18.18533203 4.85621094 17.43316406 4.68554688 16.65820312 C3.84326389 12.98712069 2.90430888 9.57243714 1.36328125 6.12890625 C0 3 0 3 0 0 Z " fill="#E09D40" transform="translate(321,95)"/>
<path d="M0 0 C0.33 0 0.66 0 1 0 C1.125 5.75 1.125 5.75 0 8 C0.99 8.33 1.98 8.66 3 9 C2.67 10.65 2.34 12.3 2 14 C1.01 14 0.02 14 -1 14 C-1 13.34 -1 12.68 -1 12 C-1.99 12 -2.98 12 -4 12 C-4.33 13.32 -4.66 14.64 -5 16 C-5.33 15.34 -5.66 14.68 -6 14 C-5.09176973 11.56442428 -4.13171929 9.23804483 -3.0625 6.875 C-2.77181641 6.21628906 -2.48113281 5.55757813 -2.18164062 4.87890625 C-1.46139802 3.24950495 -0.73158857 1.62433868 0 0 Z " fill="#4680B9" transform="translate(437,257)"/>
<path d="M0 0 C2.27034075 2.94050157 4.30412051 5.96058433 6.25 9.125 C7.06210938 10.42824219 7.06210938 10.42824219 7.890625 11.7578125 C8.25671875 12.49773437 8.6228125 13.23765625 9 14 C8.67 14.66 8.34 15.32 8 16 C6.02 15.34 4.04 14.68 2 14 C2 13.34 2 12.68 2 12 C1.34 12 0.68 12 0 12 C0.185625 11.13375 0.37125 10.2675 0.5625 9.375 C1.00667933 5.94847372 0.71954492 3.35787629 0 0 Z " fill="#487EB4" transform="translate(72,240)"/>
<path d="M0 0 C1.20220203 3.53094302 0.79532349 6.12898982 0.0625 9.75 C-0.13214844 10.73484375 -0.32679688 11.7196875 -0.52734375 12.734375 C-0.68332031 13.48203125 -0.83929688 14.2296875 -1 15 C-1.66 15 -2.32 15 -3 15 C-1.99042008 20.25055831 -1.99042008 20.25055831 1.625 23.9375 C2.40875 24.288125 3.1925 24.63875 4 25 C2 26 2 26 0.0546875 25.44140625 C-0.66460937 25.15136719 -1.38390625 24.86132812 -2.125 24.5625 C-3.21167969 24.13130859 -3.21167969 24.13130859 -4.3203125 23.69140625 C-4.87460938 23.46324219 -5.42890625 23.23507813 -6 23 C-5.37851697 20.29081668 -4.75293439 17.58268873 -4.125 14.875 C-3.95097656 14.11445312 -3.77695313 13.35390625 -3.59765625 12.5703125 C-2.60201572 8.29274576 -1.47028611 4.14594191 0 0 Z " fill="#D49E4F" transform="translate(134,87)"/>
<path d="M0 0 C2.97 0.33 5.94 0.66 9 1 C8.67 1.66 8.34 2.32 8 3 C3.68026501 3.60809019 -0.64159754 3.74611248 -5 4 C-5 8.62 -5 13.24 -5 18 C-5.33 18 -5.66 18 -6 18 C-6.33 12.72 -6.66 7.44 -7 2 C-2 1 -2 1 0 2 C0 1.34 0 0.68 0 0 Z " fill="#346FAD" transform="translate(277,434)"/>
<path d="M0 0 C0.33 1.32 0.66 2.64 1 4 C0.01 4.495 0.01 4.495 -1 5 C-0.87625 6.0725 -0.7525 7.145 -0.625 8.25 C-0.74875 9.4875 -0.8725 10.725 -1 12 C-3.875 14.3125 -3.875 14.3125 -7 16 C-7.66 16.66 -8.32 17.32 -9 18 C-8.45207105 13.3817417 -6.41035512 10.01850353 -3.9375 6.1875 C-3.56044922 5.59001953 -3.18339844 4.99253906 -2.79492188 4.37695312 C-1.87010434 2.91363423 -0.93597935 1.45620477 0 0 Z " fill="#E5A23D" transform="translate(150,55)"/>
<path d="M0 0 C0.87840996 3.09720845 0.99435406 4.90645403 0 8 C-0.66 8 -1.32 8 -2 8 C-2 8.66 -2 9.32 -2 10 C-2.66 10 -3.32 10 -4 10 C-4.26941406 10.72832031 -4.53882813 11.45664062 -4.81640625 12.20703125 C-5.97295594 14.93618316 -7.29495912 17.22577842 -8.9375 19.6875 C-9.44152344 20.45449219 -9.94554687 21.22148437 -10.46484375 22.01171875 C-12 24 -12 24 -15 26 C-13.31732238 22.43617509 -11.27466871 19.15276808 -9.1875 15.8125 C-5.96404641 10.62576354 -2.89123577 5.37936656 0 0 Z " fill="#4877A9" transform="translate(427,278)"/>
<path d="M0 0 C0.33 0.99 0.66 1.98 1 3 C-2.5463981 7.51359758 -7.59815311 9.46602606 -13 11 C-13.66 10.67 -14.32 10.34 -15 10 C-10.17918273 6.24351901 -5.3762621 2.91214197 0 0 Z " fill="#E6A43A" transform="translate(195,13)"/>
<path d="M0 0 C4.95812803 1.6462154 8.93580028 4.48632019 13.1875 7.4375 C14.27321289 8.17323242 14.27321289 8.17323242 15.38085938 8.92382812 C16.07373047 9.40142578 16.76660156 9.87902344 17.48046875 10.37109375 C18.10848389 10.80349365 18.73649902 11.23589355 19.38354492 11.68139648 C21 13 21 13 23 16 C17.58641473 14.03142354 12.26000252 11.89000378 9 7 C6.94074861 6.27617533 6.94074861 6.27617533 5 6 C5 5.34 5 4.68 5 4 C4.360625 3.71125 3.72125 3.4225 3.0625 3.125 C1 2 1 2 0 0 Z " fill="#5F81A3" transform="translate(163,126)"/>
<path d="M0 0 C6.40782674 1.73326461 12.1601877 3.85548569 18 7 C19.155 7.5775 20.31 8.155 21.5 8.75 C22.325 9.1625 23.15 9.575 24 10 C24 10.66 24 11.32 24 12 C21.6875 12.25 21.6875 12.25 19 12 C18.36578125 11.071875 18.36578125 11.071875 17.71875 10.125 C15.41540139 7.27722354 13.28694351 6.79606901 9.8125 5.75 C8.72582031 5.41484375 7.63914063 5.0796875 6.51953125 4.734375 C5.68808594 4.49203125 4.85664063 4.2496875 4 4 C4 3.34 4 2.68 4 2 C2.35 2 0.7 2 -1 2 C-0.67 1.34 -0.34 0.68 0 0 Z " fill="#7A878F" transform="translate(136,113)"/>
<path d="M0 0 C0 0.66 0 1.32 0 2 C-0.804375 2.12375 -1.60875 2.2475 -2.4375 2.375 C-3.283125 2.58125 -4.12875 2.7875 -5 3 C-5.33 3.66 -5.66 4.32 -6 5 C-7.98 5 -9.96 5 -12 5 C-12 5.66 -12 6.32 -12 7 C-20.03571429 9.27678571 -20.03571429 9.27678571 -24 8 C-20.66666667 6.66666667 -17.33333333 5.33333333 -14 4 C-13.12988281 3.649375 -12.25976562 3.29875 -11.36328125 2.9375 C-3.95833333 0 -3.95833333 0 0 0 Z " fill="#5986AF" transform="translate(382,106)"/>
<path d="M0 0 C6.82382809 0.21662946 12.61034826 1.6766189 19 3.9375 C19.754021 4.20256348 20.50804199 4.46762695 21.28491211 4.74072266 C26.73082482 6.73082482 26.73082482 6.73082482 29 9 C25.28400809 9.20086443 24.22791555 9.1519437 21 7 C18.67328146 6.31060191 16.33932406 5.64533078 14 5 C12.824375 4.505 12.824375 4.505 11.625 4 C7.84806277 2.56116677 3.95280377 1.80950665 0 1 C0 0.67 0 0.34 0 0 Z " fill="#E0A649" transform="translate(268,1)"/>
<path d="M0 0 C6.61047557 6.20984069 11.80509758 13.60119958 17 21 C13.84930578 19.63310446 11.99108226 18.14342115 9.8125 15.5 C9.30332031 14.8915625 8.79414062 14.283125 8.26953125 13.65625 C7 12 7 12 6 10 C5.360625 9.79375 4.72125 9.5875 4.0625 9.375 C1.51406151 7.67604101 1.46138636 6.78196007 0.75 3.875 C0.5025 2.59625 0.255 1.3175 0 0 Z " fill="#4D76A5" transform="translate(85,262)"/>
<path d="M0 0 C0.66 0.99 1.32 1.98 2 3 C1.01 4.1446875 1.01 4.1446875 0 5.3125 C-2.29850538 7.84277939 -2.29850538 7.84277939 -2 11 C-3.5 12.6875 -3.5 12.6875 -5 14 C-5.33 13.67 -5.66 13.34 -6 13 C-6.33 13.99 -6.66 14.98 -7 16 C-7.66 15.67 -8.32 15.34 -9 15 C-8.38125 13.948125 -7.7625 12.89625 -7.125 11.8125 C-5.86528323 9.62457088 -4.85144558 7.61550622 -3.9375 5.25 C-2.956754 2.8962096 -1.91350956 1.65257644 0 0 Z " fill="#4983BE" transform="translate(281,174)"/>
<path d="M0 0 C2.59888857 3.89833285 1.70074754 5.4840714 1 10 C1.35974895 12.81237541 1.35974895 12.81237541 2 15 C-1.96189783 10.76486783 -3.43181728 6.452999 -5 1 C-3.68 1 -2.36 1 -1 1 C-0.67 0.67 -0.34 0.34 0 0 Z " fill="#497FB8" transform="translate(206,224)"/>
<path d="M0 0 C0.66 0 1.32 0 2 0 C2 4.29 2 8.58 2 13 C3.65 13.33 5.3 13.66 7 14 C6.01 15.485 6.01 15.485 5 17 C5 16.34 5 15.68 5 15 C4.01 15 3.02 15 2 15 C2 15.66 2 16.32 2 17 C1.34 17 0.68 17 0 17 C0 11.39 0 5.78 0 0 Z " fill="#5183B4" transform="translate(457,148)"/>
<path d="M0 0 C0.598125 0.350625 1.19625 0.70125 1.8125 1.0625 C4.06410301 2.30973248 4.06410301 2.30973248 6.75 1.125 C7.4925 0.75375 8.235 0.3825 9 0 C9.33 0.99 9.66 1.98 10 3 C10.99 3.66 11.98 4.32 13 5 C9.22628488 6.3357457 6.14168653 5.72408671 2.25 5.0625 C1.07953125 4.86785156 -0.0909375 4.67320312 -1.296875 4.47265625 C-2.63492188 4.23869141 -2.63492188 4.23869141 -4 4 C-3.34 3.67 -2.68 3.34 -2 3 C-2 2.34 -2 1.68 -2 1 C-1.34 0.67 -0.68 0.34 0 0 Z " fill="#4E86B9" transform="translate(86,144)"/>
<path d="M0 0 C0.66 0.33 1.32 0.66 2 1 C0.63410386 4.79189077 -1.10454649 7.84381378 -3.4375 11.125 C-4.03433594 11.97320312 -4.63117188 12.82140625 -5.24609375 13.6953125 C-6.72838784 15.64309316 -8.21712802 17.33162439 -10 19 C-9.67 16.36 -9.34 13.72 -9 11 C-8.34 11 -7.68 11 -7 11 C-7 10.34 -7 9.68 -7 9 C-6.21625 8.401875 -5.4325 7.80375 -4.625 7.1875 C-1.85071227 4.87559356 -1.03733633 3.39491889 0 0 Z " fill="#4D7CAC" transform="translate(308,209)"/>
<path d="M0 0 C2 3 2 3 2 7 C2.66 7.33 3.32 7.66 4 8 C-1.5409866 10.52958084 -7.14340094 12.33846988 -13 14 C-13 13.34 -13 12.68 -13 12 C-9.62902617 10.50178941 -7.79557881 10 -4 10 C-3.67 9.01 -3.34 8.02 -3 7 C-2.01 7 -1.02 7 0 7 C0 4.69 0 2.38 0 0 Z " fill="#D59D50" transform="translate(369,101)"/>
<path d="M0 0 C2.5 0.3125 2.5 0.3125 5 1 C5.33 1.66 5.66 2.32 6 3 C7.32 2.67 8.64 2.34 10 2 C9.67 3.32 9.34 4.64 9 6 C5.37 5.67 1.74 5.34 -2 5 C-1 1 -1 1 0 0 Z " fill="#3378BD" transform="translate(214,392)"/>
<path d="M0 0 C0.66 0.33 1.32 0.66 2 1 C-0.70308112 4.80433639 -2.62060944 6.46129521 -7 8 C-7.33 8.66 -7.66 9.32 -8 10 C-9.99609375 11.32421875 -9.99609375 11.32421875 -12.4375 12.6875 C-13.24058594 13.14511719 -14.04367187 13.60273438 -14.87109375 14.07421875 C-15.57363281 14.37972656 -16.27617187 14.68523437 -17 15 C-17.66 14.67 -18.32 14.34 -19 14 C-18.04738281 13.32453125 -17.09476562 12.6490625 -16.11328125 11.953125 C-14.8462995 11.0521602 -13.57937548 10.15111423 -12.3125 9.25 C-11.68666016 8.8065625 -11.06082031 8.363125 -10.41601562 7.90625 C-6.85526857 5.37084895 -3.38477246 2.76994764 0 0 Z " fill="#4371A2" transform="translate(371,346)"/>
<path d="M0 0 C0.99 0.33 1.98 0.66 3 1 C2.27683594 1.81404297 2.27683594 1.81404297 1.5390625 2.64453125 C0.90742188 3.35996094 0.27578125 4.07539063 -0.375 4.8125 C-1.31472656 5.87404297 -1.31472656 5.87404297 -2.2734375 6.95703125 C-4.140599 9.08803819 -4.140599 9.08803819 -6 12 C-6.99 11.67 -7.98 11.34 -9 11 C-9 8 -9 8 -7.28515625 6.2109375 C-6.18494141 5.30214844 -6.18494141 5.30214844 -5.0625 4.375 C-4.33160156 3.76398438 -3.60070312 3.15296875 -2.84765625 2.5234375 C-2.23792969 2.02070313 -1.62820313 1.51796875 -1 1 C-0.67 0.67 -0.34 0.34 0 0 Z " fill="#4584C6" transform="translate(321,192)"/>
<path d="M0 0 C1.32 0.33 2.64 0.66 4 1 C1.91888693 2.46159097 -0.16474461 3.91933992 -2.25 5.375 C-2.83652344 5.7875 -3.42304688 6.2 -4.02734375 6.625 C-6.92995082 8.64704088 -9.76947715 10.54466545 -13 12 C-12.8125 10.1875 -12.8125 10.1875 -12 8 C-7.82142857 5 -7.82142857 5 -5 5 C-5 4.01 -5 3.02 -5 2 C-3.35 2 -1.7 2 0 2 C0 1.34 0 0.68 0 0 Z " fill="#5180AD" transform="translate(350,170)"/>
<path d="M0 0 C8.25 0 16.5 0 25 0 C24.01 1.485 24.01 1.485 23 3 C19.9375 3.25 19.9375 3.25 17 3 C16.67 2.67 16.34 2.34 16 2 C13.30764224 1.76321284 10.63501844 1.57801975 7.9375 1.4375 C7.17888672 1.39431641 6.42027344 1.35113281 5.63867188 1.30664062 C3.75934562 1.20026367 1.87969756 1.09960066 0 1 C0 0.67 0 0.34 0 0 Z " fill="#4B89C4" transform="translate(8,99)"/>
<path d="M0 0 C2.475 0.99 2.475 0.99 5 2 C2.69 8.27 0.38 14.54 -2 21 C-3.10878665 16.56485339 -2.38304384 15.29299444 -0.703125 11.23828125 C0.4644409 7.52152982 0.24077539 3.85240617 0 0 Z " fill="#E09E3E" transform="translate(176,90)"/>
<path d="M0 0 C5.9035508 -0.42934915 9.63316944 0.37347891 14.921875 3.02734375 C16.94189888 3.97280606 18.82470935 4.53456619 21 5 C21 5.66 21 6.32 21 7 C20.33355469 6.80664062 19.66710937 6.61328125 18.98046875 6.4140625 C12.36790841 4.5458986 5.77921021 3.11457034 -1 2 C-0.67 1.34 -0.34 0.68 0 0 Z " fill="#E3A249" transform="translate(258,47)"/>
<path d="M0 0 C1.93719378 -0.05406122 3.87481921 -0.09282025 5.8125 -0.125 C6.89144531 -0.14820312 7.97039062 -0.17140625 9.08203125 -0.1953125 C12 -0 12 -0 15 2 C17.85584819 2.60299434 20.71423652 3.01311613 23.6015625 3.4375 C24.78878906 3.7159375 24.78878906 3.7159375 26 4 C26.33 4.66 26.66 5.32 27 6 C21.23716896 6.45496035 16.39431697 4.79099852 11 3 C11 2.34 11 1.68 11 1 C7.37 1 3.74 1 0 1 C0 0.67 0 0.34 0 0 Z " fill="#F2AA30" transform="translate(255,0)"/>
<path d="M0 0 C2.86724686 0.57344937 3.8614515 0.8614515 6 3 C6 4.32 6 5.64 6 7 C6.99 7 7.98 7 9 7 C8.67 8.32 8.34 9.64 8 11 C5.36 9.35 2.72 7.7 0 6 C0.66 5.67 1.32 5.34 2 5 C1.34 3.35 0.68 1.7 0 0 Z " fill="#4E85BA" transform="translate(138,160)"/>
<path d="M0 0 C1.38111722 2.2747813 2.05694702 3.50171361 1.75 6.1875 C1 8 1 8 -1 9 C-1.66 10.32 -2.32 11.64 -3 13 C-3 10.03 -3 7.06 -3 4 C-3.66 3.67 -4.32 3.34 -5 3 C-4.34 2.34 -3.68 1.68 -3 1 C-2.01 1.33 -1.02 1.66 0 2 C0 1.34 0 0.68 0 0 Z " fill="#4988C3" transform="translate(462,144)"/>
<path d="M0 0 C0 4.12416695 -1.7152709 5.3456698 -4.375 8.4375 C-7.04502521 11.55252941 -9.20847479 14.32571451 -11 18 C-13.125 19.25 -13.125 19.25 -15 20 C-13.45782517 14.70519974 -9.97196347 11.20334063 -6.375 7.1875 C-5.45847656 6.14819336 -5.45847656 6.14819336 -4.5234375 5.08789062 C-3.02154075 3.38652321 -1.51367997 1.69088042 0 0 Z " fill="#DEA548" transform="translate(166,35)"/>
<path d="M0 0 C0.66 0.33 1.32 0.66 2 1 C1.67 1.99 1.34 2.98 1 4 C0.21625 4.309375 -0.5675 4.61875 -1.375 4.9375 C-4.434049 6.1756865 -5.09814604 7.38495081 -7 10 C-11.39285714 13 -11.39285714 13 -14 13 C-14 12.34 -14 11.68 -14 11 C-12.71484375 9.76318359 -12.71484375 9.76318359 -10.9375 8.3984375 C-10.30585938 7.90859375 -9.67421875 7.41875 -9.0234375 6.9140625 C-8.35570312 6.40617188 -7.68796875 5.89828125 -7 5.375 C-6.33226562 4.859375 -5.66453125 4.34375 -4.9765625 3.8125 C-3.3219811 2.53610864 -1.66152632 1.26733768 0 0 Z " fill="#5280B1" transform="translate(320,136)"/>
<path d="M0 0 C0.66 0.33 1.32 0.66 2 1 C-2.75 5.875 -2.75 5.875 -5 7 C-5.99 6.67 -6.98 6.34 -8 6 C-8 6.66 -8 7.32 -8 8 C-10.64 8.33 -13.28 8.66 -16 9 C-13.93526646 6.93526646 -12.75433854 6.39493233 -10.0625 5.4375 C-9.37285156 5.18871094 -8.68320312 4.93992187 -7.97265625 4.68359375 C-6.31914641 4.11059529 -4.66017463 3.55339154 -3 3 C-3 2.34 -3 1.68 -3 1 C-2.01 0.67 -1.02 0.34 0 0 Z " fill="#70879B" transform="translate(356,115)"/>
<path d="M0 0 C0.66 0.33 1.32 0.66 2 1 C-1.3 4.3 -4.6 7.6 -8 11 C-8.66 10.67 -9.32 10.34 -10 10 C-9.75 8.125 -9.75 8.125 -9 6 C-7.25 5 -7.25 5 -5 4 C-3.31110128 2.6949419 -1.6396721 1.36639342 0 0 Z " fill="#3C75B0" transform="translate(414,368)"/>
<path d="M0 0 C7.92 3.96 7.92 3.96 16 8 C11.45717112 9.13570722 10.19584596 8.84617222 6 7 C3.76923422 5.46888349 1.97611986 3.88201892 0 2 C0 1.34 0 0.68 0 0 Z " fill="#4473A9" transform="translate(154,326)"/>
<path d="M0 0 C0.33 0.66 0.66 1.32 1 2 C1.66 2 2.32 2 3 2 C3 2.99 3 3.98 3 5 C2.071875 5.433125 1.14375 5.86625 0.1875 6.3125 C-2.47184073 7.72038627 -4.08105905 8.76123556 -6 11 C-6.66 10.67 -7.32 10.34 -8 10 C-5.36 6.7 -2.72 3.4 0 0 Z " fill="#4578AF" transform="translate(411,304)"/>
<path d="M0 0 C0 3.9967284 -1.51424049 5.4409151 -3.875 8.625 C-4.59429687 9.60726563 -5.31359375 10.58953125 -6.0546875 11.6015625 C-8 14 -8 14 -10 15 C-9.49396008 12.83125748 -9.00016187 11.00032373 -8 9 C-7.34 9 -6.68 9 -6 9 C-5.938125 8.443125 -5.87625 7.88625 -5.8125 7.3125 C-4.66626128 4.05012827 -2.50609803 2.31332126 0 0 Z " fill="#4674A5" transform="translate(449,327)"/>
<path d="M0 0 C0.33 0.66 0.66 1.32 1 2 C1.66 2.33 2.32 2.66 3 3 C3 3.99 3 4.98 3 6 C4.9375006 8.18777466 4.9375006 8.18777466 7 10 C2.01987239 8.49087042 -1.24259942 5.44338151 -5 2 C-4.34 1.67 -3.68 1.34 -3 1 C-2.01 1.33 -1.02 1.66 0 2 C0 1.34 0 0.68 0 0 Z " fill="#4072AE" transform="translate(105,344)"/>
<path d="M0 0 C2.97 0.495 2.97 0.495 6 1 C6.66 3.97 7.32 6.94 8 10 C4.71211176 6.88983545 2.16264012 3.98381075 0 0 Z " fill="#4D7EB2" transform="translate(184,203)"/>
<path d="M0 0 C3.94139078 1.66751148 6.7892812 4.22710649 10 7 C9.01 7.33 8.02 7.66 7 8 C6.67 8.66 6.34 9.32 6 10 C5.34 9.34 4.68 8.68 4 8 C4.375 5.875 4.375 5.875 5 4 C2.525 3.01 2.525 3.01 0 2 C0 1.34 0 0.68 0 0 Z " fill="#E7A63A" transform="translate(316,21)"/>
<path d="M0 0 C1.41687119 4.25061356 0.19320039 6.71851625 -1 11 C-1.33 10.34 -1.66 9.68 -2 9 C-2.66 8.67 -3.32 8.34 -4 8 C-4.625 5.9375 -4.625 5.9375 -5 4 C-4.34 4 -3.68 4 -3 4 C-1.36323743 2.0399719 -1.36323743 2.0399719 0 0 Z " fill="#4378B7" transform="translate(278,273)"/>
<path d="M0 0 C2.475 0.495 2.475 0.495 5 1 C3.89470285 5.50621146 3.34905453 7.65094547 0 11 C0 7.37 0 3.74 0 0 Z " fill="#497BB6" transform="translate(289,234)"/>
<path d="M0 0 C0.66 0 1.32 0 2 0 C1.67 1.65 1.34 3.3 1 5 C1.66 5 2.32 5 3 5 C3 5.66 3 6.32 3 7 C3.99 7.33 4.98 7.66 6 8 C6 8.66 6 9.32 6 10 C2.05860922 8.33248852 -0.7892812 5.77289351 -4 3 C-2.68 2.67 -1.36 2.34 0 2 C0 1.34 0 0.68 0 0 Z " fill="#5281B1" transform="translate(164,178)"/>
<path d="M0 0 C1.65 0 3.3 0 5 0 C5 0.66 5 1.32 5 2 C6.32 2.33 7.64 2.66 9 3 C5.77208445 5.1519437 4.71599191 5.20086443 1 5 C0.67 3.35 0.34 1.7 0 0 Z " fill="#4B87C8" transform="translate(135,115)"/>
<path d="M0 0 C0.66 0.66 1.32 1.32 2 2 C1.67 2.33 1.34 2.66 1 3 C1.66 3.66 2.32 4.32 3 5 C0.69 5.66 -1.62 6.32 -4 7 C-4.33 6.34 -4.66 5.68 -5 5 C-4 2 -4 2 -1.9375 0.8125 C-1.298125 0.544375 -0.65875 0.27625 0 0 Z " fill="#2D78BE" transform="translate(333,416)"/>
<path d="M0 0 C6.35987804 -0.20190089 11.85221129 0.3722167 18 2 C18 2.33 18 2.66 18 3 C11.59646678 3.2361959 6.15370839 2.823321 0 1 C0 0.67 0 0.34 0 0 Z " fill="#3C76AB" transform="translate(192,393)"/>
<path d="M0 0 C2 2 2 2 2 6 C1.01 6 0.02 6 -1 6 C-1.33 6.66 -1.66 7.32 -2 8 C-2.66 6.35 -3.32 4.7 -4 3 C-2.68 2.01 -1.36 1.02 0 0 Z " fill="#478EC4" transform="translate(325,132)"/>
<path d="M0 0 C0.66 0.33 1.32 0.66 2 1 C1.34 2.98 0.68 4.96 0 7 C-0.66 7 -1.32 7 -2 7 C-2 7.66 -2 8.32 -2 9 C-2.66 8.67 -3.32 8.34 -4 8 C-3.67 6.35 -3.34 4.7 -3 3 C-2.01 2.67 -1.02 2.34 0 2 C0 1.34 0 0.68 0 0 Z " fill="#2E78BE" transform="translate(364,400)"/>
<path d="M0 0 C0.99 0 1.98 0 3 0 C3 0.66 3 1.32 3 2 C3.53625 2.268125 4.0725 2.53625 4.625 2.8125 C8.8125 4.90625 8.8125 4.90625 13 7 C13 7.66 13 8.32 13 9 C7.97290493 7.42903279 3.97133531 4.38006951 0 1 C0 0.67 0 0.34 0 0 Z " fill="#4677A6" transform="translate(112,354)"/>
<path d="M0 0 C1.32 1.32 2.64 2.64 4 4 C2 6 2 6 -1 7 C-1.66 6.67 -2.32 6.34 -3 6 C-2.625 3.5625 -2.625 3.5625 -2 1 C-1.34 0.67 -0.68 0.34 0 0 Z " fill="#4B87C5" transform="translate(197,153)"/>
<path d="M0 0 C0 2.31 0 4.62 0 7 C-2.62187494 5.95125002 -3.79371361 5.35068687 -5.25 2.875 C-5.4975 2.25625 -5.745 1.6375 -6 1 C-3 0 -3 0 0 0 Z " fill="#4D87C5" transform="translate(368,113)"/>
<path d="M0 0 C0.66 0 1.32 0 2 0 C2 0.99 2 1.98 2 3 C2.66 3 3.32 3 4 3 C4.33 5.31 4.66 7.62 5 10 C4.34 10 3.68 10 3 10 C2.71125 9.195625 2.4225 8.39125 2.125 7.5625 C1.26737432 4.8673532 1.26737432 4.8673532 -1 4 C-0.67 2.68 -0.34 1.36 0 0 Z " fill="#E89A31" transform="translate(364,90)"/>
<path d="M0 0 C0.66 0.33 1.32 0.66 2 1 C1.67 2.65 1.34 4.3 1 6 C-0.175625 6.2165625 -0.175625 6.2165625 -1.375 6.4375 C-3.96421018 6.87798925 -3.96421018 6.87798925 -6 8 C-4.55746343 4.63408134 -2.66735273 2.48952921 0 0 Z " fill="#4987C2" transform="translate(294,161)"/>
<path d="M0 0 C3.465 1.98 3.465 1.98 7 4 C6.67 4.66 6.34 5.32 6 6 C3.69 5.34 1.38 4.68 -1 4 C-0.67 2.68 -0.34 1.36 0 0 Z " fill="#4789C7" transform="translate(177,137)"/>
<path d="M0 0 C0.66 0 1.32 0 2 0 C2 1.65 2 3.3 2 5 C3.32 5 4.64 5 6 5 C6 4.34 6 3.68 6 3 C6.99 3.33 7.98 3.66 9 4 C8.34 4 7.68 4 7 4 C7 4.66 7 5.32 7 6 C4.69 6.33 2.38 6.66 0 7 C0 4.69 0 2.38 0 0 Z " fill="#CA9B55" transform="translate(329,122)"/>
<path d="M0 0 C1.41702513 0.14230808 2.8336096 0.28900746 4.25 0.4375 C5.43335938 0.55931641 5.43335938 0.55931641 6.640625 0.68359375 C8.82364639 0.97634993 10.8773182 1.42064419 13 2 C13 3.32 13 4.64 13 6 C12.01 5.67 11.02 5.34 10 5 C10 4.34 10 3.68 10 3 C8.906875 2.87625 7.81375 2.7525 6.6875 2.625 C3 2 3 2 0 0 Z " fill="#EFA32F" transform="translate(269,49)"/>
<path d="M0 0 C0.33 0 0.66 0 1 0 C1 1.65 1 3.3 1 5 C1.66 5.33 2.32 5.66 3 6 C1.35 6.33 -0.3 6.66 -2 7 C-2.33 8.32 -2.66 9.64 -3 11 C-3.33 10.34 -3.66 9.68 -4 9 C-3.22265625 6.8359375 -3.22265625 6.8359375 -2.0625 4.375 C-1.68222656 3.55773437 -1.30195313 2.74046875 -0.91015625 1.8984375 C-0.60980469 1.27195312 -0.30945313 0.64546875 0 0 Z " fill="#4C79AC" transform="translate(435,262)"/>
<path d="M0 0 C0.66 0.33 1.32 0.66 2 1 C-0.97 4.3 -3.94 7.6 -7 11 C-7 7.22089522 -6.00296038 6.53893899 -3.5 3.8125 C-2.8503125 3.09707031 -2.200625 2.38164062 -1.53125 1.64453125 C-1.0259375 1.10183594 -0.520625 0.55914062 0 0 Z " fill="#537CA8" transform="translate(324,192)"/>
<path d="M0 0 C2.475 0.99 2.475 0.99 5 2 C1.80009492 4.74277578 -1.00499382 6.6302836 -5 8 C-5 7.34 -5 6.68 -5 6 C-4.175 5.525625 -3.35 5.05125 -2.5 4.5625 C-1.2625 3.7890625 -1.2625 3.7890625 0 3 C0 2.01 0 1.02 0 0 Z " fill="#5083B3" transform="translate(359,162)"/>
<path d="M0 0 C2 2 2 2 3 5 C6.00847418 6.22520264 6.00847418 6.22520264 9 7 C5.06329512 8.31223496 2.87511856 7.24296256 -1 6 C-0.67 4.02 -0.34 2.04 0 0 Z " fill="#5084BB" transform="translate(101,145)"/>
<path d="M0 0 C2.97 0.495 2.97 0.495 6 1 C2.8745041 3.64465038 -0.08788267 4.84414715 -4 6 C-3.67 5.01 -3.34 4.02 -3 3 C-2.01 2.67 -1.02 2.34 0 2 C0 1.34 0 0.68 0 0 Z " fill="#E5A33D" transform="translate(216,52)"/>
<path d="M0 0 C3.3 1.65 6.6 3.3 10 5 C5.6542186 6.08644535 5.05039452 5.90680911 1.25 4.0625 C0.45078125 3.68222656 -0.3484375 3.30195313 -1.171875 2.91015625 C-1.77515625 2.60980469 -2.3784375 2.30945313 -3 2 C-2.01 1.34 -1.02 0.68 0 0 Z " fill="#4373A9" transform="translate(166,382)"/>
<path d="M0 0 C3.3 0.33 6.6 0.66 10 1 C8 3 8 3 5.8359375 3.1953125 C4.61777344 3.16050781 4.61777344 3.16050781 3.375 3.125 C2.55773437 3.10695313 1.74046875 3.08890625 0.8984375 3.0703125 C0.27195313 3.04710937 -0.35453125 3.02390625 -1 3 C-0.67 2.01 -0.34 1.02 0 0 Z " fill="#3E78B1" transform="translate(193,345)"/>
<path d="M0 0 C1.23593891 3.70781672 0.5678132 4.67510253 -0.9375 8.1875 C-1.31777344 9.08855469 -1.69804687 9.98960937 -2.08984375 10.91796875 C-2.54037109 11.94857422 -2.54037109 11.94857422 -3 13 C-3.33 13 -3.66 13 -4 13 C-4 10.69 -4 8.38 -4 6 C-3.34 6 -2.68 6 -2 6 C-1.855625 5.195625 -1.71125 4.39125 -1.5625 3.5625 C-1 1 -1 1 0 0 Z " fill="#4C77A5" transform="translate(286,250)"/>
<path d="M0 0 C0.99 0.33 1.98 0.66 3 1 C3 2.98 3 4.96 3 7 C1.0625 6.25 1.0625 6.25 -1 5 C-1.75 2.875 -1.75 2.875 -2 1 C-1.34 0.67 -0.68 0.34 0 0 Z " fill="#5081B1" transform="translate(173,187)"/>
<path d="M0 0 C0 0.99 0 1.98 0 3 C-8.03571429 5.27678571 -8.03571429 5.27678571 -12 4 C-10.3767313 3.3291288 -8.75132422 2.66342971 -7.125 2 C-6.22007812 1.62875 -5.31515625 1.2575 -4.3828125 0.875 C-2 0 -2 0 0 0 Z " fill="#7F8989" transform="translate(370,110)"/>
<path d="M0 0 C1.65 0 3.3 0 5 0 C5 0.99 5 1.98 5 3 C2.35261084 4.4606285 1.10551666 5 -2 5 C-1.34 3.35 -0.68 1.7 0 0 Z " fill="#4785C4" transform="translate(267,195)"/>
<path d="M0 0 C1.65 0 3.3 0 5 0 C5.33 0.66 5.66 1.32 6 2 C2.98131566 3.50934217 0.32702771 3.17510672 -3 3 C-3.99 2.34 -4.98 1.68 -6 1 C-3.03 1.495 -3.03 1.495 0 2 C0 1.34 0 0.68 0 0 Z " fill="#4E86BC" transform="translate(116,152)"/>
<path d="M0 0 C0.66 0 1.32 0 2 0 C2.33 1.65 2.66 3.3 3 5 C1.35 5.33 -0.3 5.66 -2 6 C-2 5.01 -2 4.02 -2 3 C-2.66 2.67 -3.32 2.34 -4 2 C-2.68 2 -1.36 2 0 2 C0 1.34 0 0.68 0 0 Z " fill="#4A88C9" transform="translate(348,121)"/>
<path d="M0 0 C1.32 0.33 2.64 0.66 4 1 C3.01 1 2.02 1 1 1 C1 1.66 1 2.32 1 3 C-4.2734375 6.22265625 -4.2734375 6.22265625 -6 7 C-6.66 6.67 -7.32 6.34 -8 6 C-6.68 5.34 -5.36 4.68 -4 4 C-4 3.34 -4 2.68 -4 2 C-2.68 2 -1.36 2 0 2 C0 1.34 0 0.68 0 0 Z " fill="#C79959" transform="translate(352,115)"/>
<path d="M0 0 C0.66 0 1.32 0 2 0 C2 0.66 2 1.32 2 2 C2.763125 2.12375 3.52625 2.2475 4.3125 2.375 C7 3 7 3 10 5 C5.78121808 5.19622241 2.82989106 4.80230168 -1 3 C-0.67 2.01 -0.34 1.02 0 0 Z " fill="#6186A5" transform="translate(126,108)"/>
<path d="M0 0 C5.53846154 -0.36923077 5.53846154 -0.36923077 7.875 1.5 C8.24625 1.995 8.6175 2.49 9 3 C5.79937313 4.60031344 3.27728194 3.03173691 0 2 C0 1.34 0 0.68 0 0 Z " fill="#4A89C8" transform="translate(89,101)"/>
<path d="M0 0 C4.05281712 1.22527029 7.44360764 2.69880494 11 5 C9 6 9 6 7.08984375 5.546875 C6.37957031 5.28390625 5.66929687 5.0209375 4.9375 4.75 C4.22464844 4.49734375 3.51179688 4.2446875 2.77734375 3.984375 C1 3 1 3 0 0 Z " fill="#E6AA40" transform="translate(297,10)"/>
<path d="M0 0 C0.66 0.66 1.32 1.32 2 2 C1.625 4.625 1.625 4.625 1 7 C-0.32 6.34 -1.64 5.68 -3 5 C-2.01 3.35 -1.02 1.7 0 0 Z " fill="#2B77BC" transform="translate(461,448)"/>
<path d="M0 0 C0.66 0.33 1.32 0.66 2 1 C2 2.65 2 4.3 2 6 C-0.4375 5.625 -0.4375 5.625 -3 5 C-3.33 4.34 -3.66 3.68 -4 3 C-3.01 2.67 -2.02 2.34 -1 2 C-0.67 1.34 -0.34 0.68 0 0 Z " fill="#467DB8" transform="translate(68,306)"/>
<path d="M0 0 C0.33 0.66 0.66 1.32 1 2 C3.52733235 2.65555119 3.52733235 2.65555119 6 3 C5.67 3.66 5.34 4.32 5 5 C1.48283697 5 0.62878252 4.17554415 -2 2 C-1.34 1.34 -0.68 0.68 0 0 Z " fill="#4786C6" transform="translate(150,168)"/>
<path d="M0 0 C0.66 0.99 1.32 1.98 2 3 C0.625 5 0.625 5 -1 7 C-1.66 7 -2.32 7 -3 7 C-3.33 6.01 -3.66 5.02 -4 4 C-2.68 2.68 -1.36 1.36 0 0 Z " fill="#4987C7" transform="translate(302,153)"/>
<path d="M0 0 C-0.33 0.66 -0.66 1.32 -1 2 C-3.31 2 -5.62 2 -8 2 C-8.33 1.34 -8.66 0.68 -9 0 C-5.93109813 -1.53445094 -3.29905734 -0.54984289 0 0 Z " fill="#4E83BE" transform="translate(388,153)"/>
<path d="M0 0 C2 2 2 2 2.125 5.625 C2.08375 6.73875 2.0425 7.8525 2 9 C1.67 8.34 1.34 7.68 1 7 C0.34 7 -0.32 7 -1 7 C-1.04254356 5.00045254 -1.04080783 2.99958364 -1 1 C-0.67 0.67 -0.34 0.34 0 0 Z " fill="#507CB1" transform="translate(43,147)"/>
<path d="M0 0 C3.3 0 6.6 0 10 0 C6.55549263 2.29633824 4.06187717 2.54016485 0 3 C0 2.01 0 1.02 0 0 Z " fill="#5480B4" transform="translate(390,150)"/>
<path d="M0 0 C1.98 0.495 1.98 0.495 4 1 C3.34 2.32 2.68 3.64 2 5 C1.01 5 0.02 5 -1 5 C-0.67 3.35 -0.34 1.7 0 0 Z " fill="#FA991E" transform="translate(332,120)"/>
<path d="M0 0 C-0.33 0.99 -0.66 1.98 -1 3 C-5.455 3.495 -5.455 3.495 -10 4 C-6.64877401 1.34213111 -4.39380802 0 0 0 Z " fill="#E7AB3F" transform="translate(215,5)"/>
<path d="M0 0 C2 0 2 0 3.54296875 1.42578125 C4.08566406 2.04839844 4.62835938 2.67101562 5.1875 3.3125 C5.73792969 3.92738281 6.28835937 4.54226563 6.85546875 5.17578125 C7.42201172 6.07876953 7.42201172 6.07876953 8 7 C7.67 7.99 7.34 8.98 7 10 C5.83043409 8.52312468 4.66441854 7.04343707 3.5 5.5625 C2.8503125 4.73878906 2.200625 3.91507812 1.53125 3.06640625 C0 1 0 1 0 0 Z " fill="#4B77AA" transform="translate(56,298)"/>
<path d="M0 0 C4.875 4.75 4.875 4.75 6 7 C5.67 7.66 5.34 8.32 5 9 C4.01 8.67 3.02 8.34 2 8 C1.26953125 6.15234375 1.26953125 6.15234375 0.8125 3.9375 C0.65394531 3.20402344 0.49539062 2.47054688 0.33203125 1.71484375 C0.22246094 1.14894531 0.11289063 0.58304687 0 0 Z " fill="#4573B3" transform="translate(85,262)"/>
<path d="M0 0 C3.6 5.4 3.6 5.4 5 8 C4.67 8.66 4.34 9.32 4 10 C2.68 9.34 1.36 8.68 0 8 C0 5.36 0 2.72 0 0 Z " fill="#4C7BAF" transform="translate(67,230)"/>
<path d="M0 0 C1.32 0 2.64 0 4 0 C5.0625 1.8125 5.0625 1.8125 6 4 C5.67 4.99 5.34 5.98 5 7 C0 1.125 0 1.125 0 0 Z " fill="#4B7DAC" transform="translate(176,194)"/>
<path d="M0 0 C0.33 0 0.66 0 1 0 C1 2.97 1 5.94 1 9 C-1.475 8.01 -1.475 8.01 -4 7 C-3.01 6.67 -2.02 6.34 -1 6 C-0.67 4.02 -0.34 2.04 0 0 Z " fill="#CF9F58" transform="translate(170,121)"/>
<path d="M0 0 C2.97 0 5.94 0 9 0 C8.01 0.66 7.02 1.32 6 2 C6 2.66 6 3.32 6 4 C5.01 4 4.02 4 3 4 C2.67 3.34 2.34 2.68 2 2 C1.34 2 0.68 2 0 2 C0 1.34 0 0.68 0 0 Z " fill="#F2AA2C" transform="translate(233,0)"/>
<path d="M0 0 C-5.14285714 4.42857143 -5.14285714 4.42857143 -9 5 C-9 3 -9 3 -7.875 1.375 C-5.24112056 -0.55651159 -3.18083044 -0.21205536 0 0 Z " fill="#3873AC" transform="translate(362,409)"/>
<path d="M0 0 C0.99 0.33 1.98 0.66 3 1 C2.67 3.31 2.34 5.62 2 8 C1.01 7.67 0.02 7.34 -1 7 C-0.67 4.69 -0.34 2.38 0 0 Z " fill="#4A86C8" transform="translate(369,152)"/>
<path d="M0 0 C1.65 1.65 3.3 3.3 5 5 C3.0625 5.5625 3.0625 5.5625 1 6 C0 5 0 5 -0.0625 2.4375 C-0.041875 1.633125 -0.02125 0.82875 0 0 Z " fill="#5082B6" transform="translate(187,142)"/>
<path d="M0 0 C1.485 0.99 1.485 0.99 3 2 C1.84826645 4.46800047 0.95216435 6.04783565 -1 8 C-1.04241723 5.66705225 -1.04092937 3.33297433 -1 1 C-0.67 0.67 -0.34 0.34 0 0 Z " fill="#4986C4" transform="translate(218,176)"/>
<path d="M0 0 C1.65 0.33 3.3 0.66 5 1 C3.68 2.32 2.36 3.64 1 5 C0.01 4.34 -0.98 3.68 -2 3 C-1.34 2.01 -0.68 1.02 0 0 Z " fill="#4886C5" transform="translate(212,171)"/>
<path d="M0 0 C1.32 0.99 2.64 1.98 4 3 C3.67 3.66 3.34 4.32 3 5 C0.69 4.67 -1.62 4.34 -4 4 C-3.34 3.67 -2.68 3.34 -2 3 C-2 2.34 -2 1.68 -2 1 C-1.34 0.67 -0.68 0.34 0 0 Z " fill="#4A8EC0" transform="translate(86,144)"/>
<path d="M0 0 C0.66 0.33 1.32 0.66 2 1 C1.34 2.32 0.68 3.64 0 5 C-1.32 5 -2.64 5 -4 5 C-2.25 1.125 -2.25 1.125 0 0 Z " fill="#4987C7" transform="translate(319,139)"/>
<path d="M0 0 C2.97 0.495 2.97 0.495 6 1 C4.8125 2.5 4.8125 2.5 3 4 C0.3125 4.1875 0.3125 4.1875 -2 4 C-2 3.34 -2 2.68 -2 2 C-1.34 2 -0.68 2 0 2 C0 1.34 0 0.68 0 0 Z " fill="#4E89C4" transform="translate(82,100)"/>
</svg>
